<svg width="64" height="64" viewBox="0 0 64 64" fill="none" xmlns="http://www.w3.org/2000/svg">
    <path d="M19.8622 0H17.6553V2.2069H19.8622V0Z" fill="white"/>
    <path d="M22.069 0H19.8621V2.2069H22.069V0Z" fill="white"/>
    <path d="M24.276 0H22.0691V2.2069H24.276V0Z" fill="white"/>
    <path d="M30.8966 0H28.6897V2.2069H30.8966V0Z" fill="white"/>
    <path d="M33.1034 0H30.8965V2.2069H33.1034V0Z" fill="white"/>
    <path d="M35.3104 0H33.1035V2.2069H35.3104V0Z" fill="white"/>
    <path d="M41.9313 0H39.7244V2.2069H41.9313V0Z" fill="white"/>
    <path d="M19.8622 2.20679H17.6553V4.41368H19.8622V2.20679Z" fill="white"/>
    <path d="M22.069 2.20679H19.8621V4.41368H22.069V2.20679Z" fill="white"/>
    <path d="M24.276 2.20679H22.0691V4.41368H24.276V2.20679Z" fill="white"/>
    <path d="M26.4825 2.20679H24.2756V4.41368H26.4825V2.20679Z" fill="white"/>
    <path d="M28.6896 2.20679H26.4827V4.41368H28.6896V2.20679Z" fill="white"/>
    <path d="M30.8966 2.20679H28.6897V4.41368H30.8966V2.20679Z" fill="white"/>
    <path d="M33.1034 2.20679H30.8965V4.41368H33.1034V2.20679Z" fill="white"/>
    <path d="M35.3104 2.20679H33.1035V4.41368H35.3104V2.20679Z" fill="white"/>
    <path d="M39.7242 2.20679H37.5173V4.41368H39.7242V2.20679Z" fill="white"/>
    <path d="M41.9313 2.20679H39.7244V4.41368H41.9313V2.20679Z" fill="white"/>
    <path d="M44.1378 2.20679H41.9309V4.41368H44.1378V2.20679Z" fill="white"/>
    <path d="M46.3448 2.20679H44.1379V4.41368H46.3448V2.20679Z" fill="white"/>
    <path d="M19.8622 4.41382H17.6553V6.62071H19.8622V4.41382Z" fill="white"/>
    <path d="M22.069 4.41382H19.8621V6.62071H22.069V4.41382Z" fill="white"/>
    <path d="M24.276 4.41382H22.0691V6.62071H24.276V4.41382Z" fill="white"/>
    <path d="M26.4825 4.41382H24.2756V6.62071H26.4825V4.41382Z" fill="white"/>
    <path d="M30.8966 4.41382H28.6897V6.62071H30.8966V4.41382Z" fill="white"/>
    <path d="M33.1034 4.41382H30.8965V6.62071H33.1034V4.41382Z" fill="white"/>
    <path d="M46.3448 4.41382H44.1379V6.62071H46.3448V4.41382Z" fill="white"/>
    <path d="M22.069 6.62061H19.8621V8.8275H22.069V6.62061Z" fill="white"/>
    <path d="M24.276 6.62061H22.0691V8.8275H24.276V6.62061Z" fill="white"/>
    <path d="M26.4825 6.62061H24.2756V8.8275H26.4825V6.62061Z" fill="white"/>
    <path d="M28.6896 6.62061H26.4827V8.8275H28.6896V6.62061Z" fill="white"/>
    <path d="M33.1034 6.62061H30.8965V8.8275H33.1034V6.62061Z" fill="white"/>
    <path d="M35.3104 6.62061H33.1035V8.8275H35.3104V6.62061Z" fill="white"/>
    <path d="M39.7242 6.62061H37.5173V8.8275H39.7242V6.62061Z" fill="white"/>
    <path d="M44.1378 6.62061H41.9309V8.8275H44.1378V6.62061Z" fill="white"/>
    <path d="M46.3448 6.62061H44.1379V8.8275H46.3448V6.62061Z" fill="white"/>
    <path d="M19.8622 8.82764H17.6553V11.0345H19.8622V8.82764Z" fill="white"/>
    <path d="M22.069 8.82764H19.8621V11.0345H22.069V8.82764Z" fill="white"/>
    <path d="M24.276 8.82764H22.0691V11.0345H24.276V8.82764Z" fill="white"/>
    <path d="M28.6896 8.82764H26.4827V11.0345H28.6896V8.82764Z" fill="white"/>
    <path d="M30.8966 8.82764H28.6897V11.0345H30.8966V8.82764Z" fill="white"/>
    <path d="M35.3104 8.82764H33.1035V11.0345H35.3104V8.82764Z" fill="white"/>
    <path d="M39.7242 8.82764H37.5173V11.0345H39.7242V8.82764Z" fill="white"/>
    <path d="M41.9313 8.82764H39.7244V11.0345H41.9313V8.82764Z" fill="white"/>
    <path d="M44.1378 8.82764H41.9309V11.0345H44.1378V8.82764Z" fill="white"/>
    <path d="M22.069 11.0347H19.8621V13.2416H22.069V11.0347Z" fill="white"/>
    <path d="M30.8966 11.0347H28.6897V13.2416H30.8966V11.0347Z" fill="white"/>
    <path d="M33.1034 11.0347H30.8965V13.2416H33.1034V11.0347Z" fill="white"/>
    <path d="M39.7242 11.0347H37.5173V13.2416H39.7242V11.0347Z" fill="white"/>
    <path d="M46.3448 11.0347H44.1379V13.2416H46.3448V11.0347Z" fill="white"/>
    <path d="M19.8622 13.2415H17.6553V15.4484H19.8622V13.2415Z" fill="white"/>
    <path d="M24.276 13.2415H22.0691V15.4484H24.276V13.2415Z" fill="white"/>
    <path d="M28.6896 13.2415H26.4827V15.4484H28.6896V13.2415Z" fill="white"/>
    <path d="M33.1034 13.2415H30.8965V15.4484H33.1034V13.2415Z" fill="white"/>
    <path d="M37.5172 13.2415H35.3103V15.4484H37.5172V13.2415Z" fill="white"/>
    <path d="M41.9313 13.2415H39.7244V15.4484H41.9313V13.2415Z" fill="white"/>
    <path d="M46.3448 13.2415H44.1379V15.4484H46.3448V13.2415Z" fill="white"/>
    <path d="M22.069 15.4485H19.8621V17.6554H22.069V15.4485Z" fill="white"/>
    <path d="M28.6896 15.4485H26.4827V17.6554H28.6896V15.4485Z" fill="white"/>
    <path d="M33.1034 15.4485H30.8965V17.6554H33.1034V15.4485Z" fill="white"/>
    <path d="M2.2069 17.6553H0V19.8622H2.2069V17.6553Z" fill="white"/>
    <path d="M8.8275 17.6553H6.62061V19.8622H8.8275V17.6553Z" fill="white"/>
    <path d="M11.0345 17.6553H8.82764V19.8622H11.0345V17.6553Z" fill="white"/>
    <path d="M13.2416 17.6553H11.0347V19.8622H13.2416V17.6553Z" fill="white"/>
    <path d="M15.4484 17.6553H13.2415V19.8622H15.4484V17.6553Z" fill="white"/>
    <path d="M17.6554 17.6553H15.4485V19.8622H17.6554V17.6553Z" fill="white"/>
    <path d="M19.8622 17.6553H17.6553V19.8622H19.8622V17.6553Z" fill="white"/>
    <path d="M22.069 17.6553H19.8621V19.8622H22.069V17.6553Z" fill="white"/>
    <path d="M28.6896 17.6553H26.4827V19.8622H28.6896V17.6553Z" fill="white"/>
    <path d="M30.8966 17.6553H28.6897V19.8622H30.8966V17.6553Z" fill="white"/>
    <path d="M33.1034 17.6553H30.8965V19.8622H33.1034V17.6553Z" fill="white"/>
    <path d="M35.3104 17.6553H33.1035V19.8622H35.3104V17.6553Z" fill="white"/>
    <path d="M37.5172 17.6553H35.3103V19.8622H37.5172V17.6553Z" fill="white"/>
    <path d="M39.7242 17.6553H37.5173V19.8622H39.7242V17.6553Z" fill="white"/>
    <path d="M48.5516 17.6553H46.3447V19.8622H48.5516V17.6553Z" fill="white"/>
    <path d="M55.1722 17.6553H52.9653V19.8622H55.1722V17.6553Z" fill="white"/>
    <path d="M59.5863 17.6553H57.3794V19.8622H59.5863V17.6553Z" fill="white"/>
    <path d="M61.7931 17.6553H59.5862V19.8622H61.7931V17.6553Z" fill="white"/>
    <path d="M64.0001 17.6553H61.7932V19.8622H64.0001V17.6553Z" fill="white"/>
    <path d="M2.2069 19.8621H0V22.069H2.2069V19.8621Z" fill="white"/>
    <path d="M6.62071 19.8621H4.41382V22.069H6.62071V19.8621Z" fill="white"/>
    <path d="M19.8622 19.8621H17.6553V22.069H19.8622V19.8621Z" fill="white"/>
    <path d="M28.6896 19.8621H26.4827V22.069H28.6896V19.8621Z" fill="white"/>
    <path d="M33.1034 19.8621H30.8965V22.069H33.1034V19.8621Z" fill="white"/>
    <path d="M39.7242 19.8621H37.5173V22.069H39.7242V19.8621Z" fill="white"/>
    <path d="M44.1378 19.8621H41.9309V22.069H44.1378V19.8621Z" fill="white"/>
    <path d="M48.5516 19.8621H46.3447V22.069H48.5516V19.8621Z" fill="white"/>
    <path d="M52.9654 19.8621H50.7585V22.069H52.9654V19.8621Z" fill="white"/>
    <path d="M55.1722 19.8621H52.9653V22.069H55.1722V19.8621Z" fill="white"/>
    <path d="M59.5863 19.8621H57.3794V22.069H59.5863V19.8621Z" fill="white"/>
    <path d="M61.7931 19.8621H59.5862V22.069H61.7931V19.8621Z" fill="white"/>
    <path d="M4.41368 22.0691H2.20679V24.276H4.41368V22.0691Z" fill="white"/>
    <path d="M6.62071 22.0691H4.41382V24.276H6.62071V22.0691Z" fill="white"/>
    <path d="M11.0345 22.0691H8.82764V24.276H11.0345V22.0691Z" fill="white"/>
    <path d="M13.2416 22.0691H11.0347V24.276H13.2416V22.0691Z" fill="white"/>
    <path d="M15.4484 22.0691H13.2415V24.276H15.4484V22.0691Z" fill="white"/>
    <path d="M22.069 22.0691H19.8621V24.276H22.069V22.0691Z" fill="white"/>
    <path d="M24.276 22.0691H22.0691V24.276H24.276V22.0691Z" fill="white"/>
    <path d="M33.1034 22.0691H30.8965V24.276H33.1034V22.0691Z" fill="white"/>
    <path d="M39.7242 22.0691H37.5173V24.276H39.7242V22.0691Z" fill="white"/>
    <path d="M41.9313 22.0691H39.7244V24.276H41.9313V22.0691Z" fill="white"/>
    <path d="M48.5516 22.0691H46.3447V24.276H48.5516V22.0691Z" fill="white"/>
    <path d="M52.9654 22.0691H50.7585V24.276H52.9654V22.0691Z" fill="white"/>
    <path d="M59.5863 22.0691H57.3794V24.276H59.5863V22.0691Z" fill="white"/>
    <path d="M8.8275 24.2756H6.62061V26.4825H8.8275V24.2756Z" fill="white"/>
    <path d="M11.0345 24.2756H8.82764V26.4825H11.0345V24.2756Z" fill="white"/>
    <path d="M19.8622 24.2756H17.6553V26.4825H19.8622V24.2756Z" fill="white"/>
    <path d="M22.069 24.2756H19.8621V26.4825H22.069V24.2756Z" fill="white"/>
    <path d="M24.276 24.2756H22.0691V26.4825H24.276V24.2756Z" fill="white"/>
    <path d="M33.1034 24.2756H30.8965V26.4825H33.1034V24.2756Z" fill="white"/>
    <path d="M35.3104 24.2756H33.1035V26.4825H35.3104V24.2756Z" fill="white"/>
    <path d="M39.7242 24.2756H37.5173V26.4825H39.7242V24.2756Z" fill="white"/>
    <path d="M46.3448 24.2756H44.1379V26.4825H46.3448V24.2756Z" fill="white"/>
    <path d="M48.5516 24.2756H46.3447V26.4825H48.5516V24.2756Z" fill="white"/>
    <path d="M50.7584 24.2756H48.5515V26.4825H50.7584V24.2756Z" fill="white"/>
    <path d="M57.3793 24.2756H55.1724V26.4825H57.3793V24.2756Z" fill="white"/>
    <path d="M64.0001 24.2756H61.7932V26.4825H64.0001V24.2756Z" fill="white"/>
    <path d="M2.2069 26.4827H0V28.6896H2.2069V26.4827Z" fill="white"/>
    <path d="M4.41368 26.4827H2.20679V28.6896H4.41368V26.4827Z" fill="white"/>
    <path d="M6.62071 26.4827H4.41382V28.6896H6.62071V26.4827Z" fill="white"/>
    <path d="M8.8275 26.4827H6.62061V28.6896H8.8275V26.4827Z" fill="white"/>
    <path d="M15.4484 26.4827H13.2415V28.6896H15.4484V26.4827Z" fill="white"/>
    <path d="M24.276 26.4827H22.0691V28.6896H24.276V26.4827Z" fill="white"/>
    <path d="M28.6896 26.4827H26.4827V28.6896H28.6896V26.4827Z" fill="white"/>
    <path d="M30.8966 26.4827H28.6897V28.6896H30.8966V26.4827Z" fill="white"/>
    <path d="M33.1034 26.4827H30.8965V28.6896H33.1034V26.4827Z" fill="white"/>
    <path d="M41.9313 26.4827H39.7244V28.6896H41.9313V26.4827Z" fill="white"/>
    <path d="M46.3448 26.4827H44.1379V28.6896H46.3448V26.4827Z" fill="white"/>
    <path d="M50.7584 26.4827H48.5515V28.6896H50.7584V26.4827Z" fill="white"/>
    <path d="M52.9654 26.4827H50.7585V28.6896H52.9654V26.4827Z" fill="white"/>
    <path d="M64.0001 26.4827H61.7932V28.6896H64.0001V26.4827Z" fill="white"/>
    <path d="M6.62071 28.6897H4.41382V30.8966H6.62071V28.6897Z" fill="white"/>
    <path d="M26.4825 28.6897H24.2756V30.8966H26.4825V28.6897Z" fill="white"/>
    <path d="M28.6896 28.6897H26.4827V30.8966H28.6896V28.6897Z" fill="white"/>
    <path d="M39.7242 28.6897H37.5173V30.8966H39.7242V28.6897Z" fill="white"/>
    <path d="M41.9313 28.6897H39.7244V30.8966H41.9313V28.6897Z" fill="white"/>
    <path d="M48.5516 28.6897H46.3447V30.8966H48.5516V28.6897Z" fill="white"/>
    <path d="M50.7584 28.6897H48.5515V30.8966H50.7584V28.6897Z" fill="white"/>
    <path d="M55.1722 28.6897H52.9653V30.8966H55.1722V28.6897Z" fill="white"/>
    <path d="M57.3793 28.6897H55.1724V30.8966H57.3793V28.6897Z" fill="white"/>
    <path d="M59.5863 28.6897H57.3794V30.8966H59.5863V28.6897Z" fill="white"/>
    <path d="M61.7931 28.6897H59.5862V30.8966H61.7931V28.6897Z" fill="white"/>
    <path d="M64.0001 28.6897H61.7932V30.8966H64.0001V28.6897Z" fill="white"/>
    <path d="M4.41368 30.8965H2.20679V33.1034H4.41368V30.8965Z" fill="white"/>
    <path d="M13.2416 30.8965H11.0347V33.1034H13.2416V30.8965Z" fill="white"/>
    <path d="M15.4484 30.8965H13.2415V33.1034H15.4484V30.8965Z" fill="white"/>
    <path d="M17.6554 30.8965H15.4485V33.1034H17.6554V30.8965Z" fill="white"/>
    <path d="M19.8622 30.8965H17.6553V33.1034H19.8622V30.8965Z" fill="white"/>
    <path d="M24.276 30.8965H22.0691V33.1034H24.276V30.8965Z" fill="white"/>
    <path d="M33.1034 30.8965H30.8965V33.1034H33.1034V30.8965Z" fill="white"/>
    <path d="M35.3104 30.8965H33.1035V33.1034H35.3104V30.8965Z" fill="white"/>
    <path d="M39.7242 30.8965H37.5173V33.1034H39.7242V30.8965Z" fill="white"/>
    <path d="M44.1378 30.8965H41.9309V33.1034H44.1378V30.8965Z" fill="white"/>
    <path d="M46.3448 30.8965H44.1379V33.1034H46.3448V30.8965Z" fill="white"/>
    <path d="M48.5516 30.8965H46.3447V33.1034H48.5516V30.8965Z" fill="white"/>
    <path d="M50.7584 30.8965H48.5515V33.1034H50.7584V30.8965Z" fill="white"/>
    <path d="M52.9654 30.8965H50.7585V33.1034H52.9654V30.8965Z" fill="white"/>
    <path d="M59.5863 30.8965H57.3794V33.1034H59.5863V30.8965Z" fill="white"/>
    <path d="M64.0001 30.8965H61.7932V33.1034H64.0001V30.8965Z" fill="white"/>
    <path d="M2.2069 33.1035H0V35.3104H2.2069V33.1035Z" fill="white"/>
    <path d="M4.41368 33.1035H2.20679V35.3104H4.41368V33.1035Z" fill="white"/>
    <path d="M11.0345 33.1035H8.82764V35.3104H11.0345V33.1035Z" fill="white"/>
    <path d="M17.6554 33.1035H15.4485V35.3104H17.6554V33.1035Z" fill="white"/>
    <path d="M22.069 33.1035H19.8621V35.3104H22.069V33.1035Z" fill="white"/>
    <path d="M24.276 33.1035H22.0691V35.3104H24.276V33.1035Z" fill="white"/>
    <path d="M30.8966 33.1035H28.6897V35.3104H30.8966V33.1035Z" fill="white"/>
    <path d="M33.1034 33.1035H30.8965V35.3104H33.1034V33.1035Z" fill="white"/>
    <path d="M37.5172 33.1035H35.3103V35.3104H37.5172V33.1035Z" fill="white"/>
    <path d="M41.9313 33.1035H39.7244V35.3104H41.9313V33.1035Z" fill="white"/>
    <path d="M52.9654 33.1035H50.7585V35.3104H52.9654V33.1035Z" fill="white"/>
    <path d="M55.1722 33.1035H52.9653V35.3104H55.1722V33.1035Z" fill="white"/>
    <path d="M59.5863 33.1035H57.3794V35.3104H59.5863V33.1035Z" fill="white"/>
    <path d="M64.0001 33.1035H61.7932V35.3104H64.0001V33.1035Z" fill="white"/>
    <path d="M11.0345 35.3103H8.82764V37.5172H11.0345V35.3103Z" fill="white"/>
    <path d="M15.4484 35.3103H13.2415V37.5172H15.4484V35.3103Z" fill="white"/>
    <path d="M28.6896 35.3103H26.4827V37.5172H28.6896V35.3103Z" fill="white"/>
    <path d="M35.3104 35.3103H33.1035V37.5172H35.3104V35.3103Z" fill="white"/>
    <path d="M44.1378 35.3103H41.9309V37.5172H44.1378V35.3103Z" fill="white"/>
    <path d="M46.3448 35.3103H44.1379V37.5172H46.3448V35.3103Z" fill="white"/>
    <path d="M57.3793 35.3103H55.1724V37.5172H57.3793V35.3103Z" fill="white"/>
    <path d="M2.2069 37.5173H0V39.7242H2.2069V37.5173Z" fill="white"/>
    <path d="M8.8275 37.5173H6.62061V39.7242H8.8275V37.5173Z" fill="white"/>
    <path d="M19.8622 37.5173H17.6553V39.7242H19.8622V37.5173Z" fill="white"/>
    <path d="M22.069 37.5173H19.8621V39.7242H22.069V37.5173Z" fill="white"/>
    <path d="M39.7242 37.5173H37.5173V39.7242H39.7242V37.5173Z" fill="white"/>
    <path d="M41.9313 37.5173H39.7244V39.7242H41.9313V37.5173Z" fill="white"/>
    <path d="M44.1378 37.5173H41.9309V39.7242H44.1378V37.5173Z" fill="white"/>
    <path d="M55.1722 37.5173H52.9653V39.7242H55.1722V37.5173Z" fill="white"/>
    <path d="M59.5863 37.5173H57.3794V39.7242H59.5863V37.5173Z" fill="white"/>
    <path d="M61.7931 37.5173H59.5862V39.7242H61.7931V37.5173Z" fill="white"/>
    <path d="M2.2069 39.7244H0V41.9313H2.2069V39.7244Z" fill="white"/>
    <path d="M4.41368 39.7244H2.20679V41.9313H4.41368V39.7244Z" fill="white"/>
    <path d="M6.62071 39.7244H4.41382V41.9313H6.62071V39.7244Z" fill="white"/>
    <path d="M15.4484 39.7244H13.2415V41.9313H15.4484V39.7244Z" fill="white"/>
    <path d="M17.6554 39.7244H15.4485V41.9313H17.6554V39.7244Z" fill="white"/>
    <path d="M22.069 39.7244H19.8621V41.9313H22.069V39.7244Z" fill="white"/>
    <path d="M24.276 39.7244H22.0691V41.9313H24.276V39.7244Z" fill="white"/>
    <path d="M30.8966 39.7244H28.6897V41.9313H30.8966V39.7244Z" fill="white"/>
    <path d="M33.1034 39.7244H30.8965V41.9313H33.1034V39.7244Z" fill="white"/>
    <path d="M37.5172 39.7244H35.3103V41.9313H37.5172V39.7244Z" fill="white"/>
    <path d="M41.9313 39.7244H39.7244V41.9313H41.9313V39.7244Z" fill="white"/>
    <path d="M44.1378 39.7244H41.9309V41.9313H44.1378V39.7244Z" fill="white"/>
    <path d="M48.5516 39.7244H46.3447V41.9313H48.5516V39.7244Z" fill="white"/>
    <path d="M50.7584 39.7244H48.5515V41.9313H50.7584V39.7244Z" fill="white"/>
    <path d="M57.3793 39.7244H55.1724V41.9313H57.3793V39.7244Z" fill="white"/>
    <path d="M64.0001 39.7244H61.7932V41.9313H64.0001V39.7244Z" fill="white"/>
    <path d="M2.2069 41.9309H0V44.1378H2.2069V41.9309Z" fill="white"/>
    <path d="M4.41368 41.9309H2.20679V44.1378H4.41368V41.9309Z" fill="white"/>
    <path d="M11.0345 41.9309H8.82764V44.1378H11.0345V41.9309Z" fill="white"/>
    <path d="M13.2416 41.9309H11.0347V44.1378H13.2416V41.9309Z" fill="white"/>
    <path d="M17.6554 41.9309H15.4485V44.1378H17.6554V41.9309Z" fill="white"/>
    <path d="M19.8622 41.9309H17.6553V44.1378H19.8622V41.9309Z" fill="white"/>
    <path d="M22.069 41.9309H19.8621V44.1378H22.069V41.9309Z" fill="white"/>
    <path d="M24.276 41.9309H22.0691V44.1378H24.276V41.9309Z" fill="white"/>
    <path d="M26.4825 41.9309H24.2756V44.1378H26.4825V41.9309Z" fill="white"/>
    <path d="M30.8966 41.9309H28.6897V44.1378H30.8966V41.9309Z" fill="white"/>
    <path d="M35.3104 41.9309H33.1035V44.1378H35.3104V41.9309Z" fill="white"/>
    <path d="M37.5172 41.9309H35.3103V44.1378H37.5172V41.9309Z" fill="white"/>
    <path d="M44.1378 41.9309H41.9309V44.1378H44.1378V41.9309Z" fill="white"/>
    <path d="M48.5516 41.9309H46.3447V44.1378H48.5516V41.9309Z" fill="white"/>
    <path d="M50.7584 41.9309H48.5515V44.1378H50.7584V41.9309Z" fill="white"/>
    <path d="M52.9654 41.9309H50.7585V44.1378H52.9654V41.9309Z" fill="white"/>
    <path d="M55.1722 41.9309H52.9653V44.1378H55.1722V41.9309Z" fill="white"/>
    <path d="M57.3793 41.9309H55.1724V44.1378H57.3793V41.9309Z" fill="white"/>
    <path d="M59.5863 41.9309H57.3794V44.1378H59.5863V41.9309Z" fill="white"/>
    <path d="M2.2069 44.1379H0V46.3448H2.2069V44.1379Z" fill="white"/>
    <path d="M4.41368 44.1379H2.20679V46.3448H4.41368V44.1379Z" fill="white"/>
    <path d="M6.62071 44.1379H4.41382V46.3448H6.62071V44.1379Z" fill="white"/>
    <path d="M13.2416 44.1379H11.0347V46.3448H13.2416V44.1379Z" fill="white"/>
    <path d="M15.4484 44.1379H13.2415V46.3448H15.4484V44.1379Z" fill="white"/>
    <path d="M22.069 44.1379H19.8621V46.3448H22.069V44.1379Z" fill="white"/>
    <path d="M24.276 44.1379H22.0691V46.3448H24.276V44.1379Z" fill="white"/>
    <path d="M28.6896 44.1379H26.4827V46.3448H28.6896V44.1379Z" fill="white"/>
    <path d="M30.8966 44.1379H28.6897V46.3448H30.8966V44.1379Z" fill="white"/>
    <path d="M39.7242 44.1379H37.5173V46.3448H39.7242V44.1379Z" fill="white"/>
    <path d="M44.1378 44.1379H41.9309V46.3448H44.1378V44.1379Z" fill="white"/>
    <path d="M46.3448 44.1379H44.1379V46.3448H46.3448V44.1379Z" fill="white"/>
    <path d="M48.5516 44.1379H46.3447V46.3448H48.5516V44.1379Z" fill="white"/>
    <path d="M50.7584 44.1379H48.5515V46.3448H50.7584V44.1379Z" fill="white"/>
    <path d="M52.9654 44.1379H50.7585V46.3448H52.9654V44.1379Z" fill="white"/>
    <path d="M55.1722 44.1379H52.9653V46.3448H55.1722V44.1379Z" fill="white"/>
    <path d="M57.3793 44.1379H55.1724V46.3448H57.3793V44.1379Z" fill="white"/>
    <path d="M59.5863 44.1379H57.3794V46.3448H59.5863V44.1379Z" fill="white"/>
    <path d="M61.7931 44.1379H59.5862V46.3448H61.7931V44.1379Z" fill="white"/>
    <path d="M19.8622 46.3447H17.6553V48.5516H19.8622V46.3447Z" fill="white"/>
    <path d="M26.4825 46.3447H24.2756V48.5516H26.4825V46.3447Z" fill="white"/>
    <path d="M30.8966 46.3447H28.6897V48.5516H30.8966V46.3447Z" fill="white"/>
    <path d="M37.5172 46.3447H35.3103V48.5516H37.5172V46.3447Z" fill="white"/>
    <path d="M39.7242 46.3447H37.5173V48.5516H39.7242V46.3447Z" fill="white"/>
    <path d="M41.9313 46.3447H39.7244V48.5516H41.9313V46.3447Z" fill="white"/>
    <path d="M46.3448 46.3447H44.1379V48.5516H46.3448V46.3447Z" fill="white"/>
    <path d="M55.1722 46.3447H52.9653V48.5516H55.1722V46.3447Z" fill="white"/>
    <path d="M57.3793 46.3447H55.1724V48.5516H57.3793V46.3447Z" fill="white"/>
    <path d="M19.8622 48.5515H17.6553V50.7584H19.8622V48.5515Z" fill="white"/>
    <path d="M30.8966 48.5515H28.6897V50.7584H30.8966V48.5515Z" fill="white"/>
    <path d="M35.3104 48.5515H33.1035V50.7584H35.3104V48.5515Z" fill="white"/>
    <path d="M37.5172 48.5515H35.3103V50.7584H37.5172V48.5515Z" fill="white"/>
    <path d="M44.1378 48.5515H41.9309V50.7584H44.1378V48.5515Z" fill="white"/>
    <path d="M46.3448 48.5515H44.1379V50.7584H46.3448V48.5515Z" fill="white"/>
    <path d="M50.7584 48.5515H48.5515V50.7584H50.7584V48.5515Z" fill="white"/>
    <path d="M55.1722 48.5515H52.9653V50.7584H55.1722V48.5515Z" fill="white"/>
    <path d="M57.3793 48.5515H55.1724V50.7584H57.3793V48.5515Z" fill="white"/>
    <path d="M19.8622 50.7585H17.6553V52.9654H19.8622V50.7585Z" fill="white"/>
    <path d="M22.069 50.7585H19.8621V52.9654H22.069V50.7585Z" fill="white"/>
    <path d="M24.276 50.7585H22.0691V52.9654H24.276V50.7585Z" fill="white"/>
    <path d="M28.6896 50.7585H26.4827V52.9654H28.6896V50.7585Z" fill="white"/>
    <path d="M30.8966 50.7585H28.6897V52.9654H30.8966V50.7585Z" fill="white"/>
    <path d="M37.5172 50.7585H35.3103V52.9654H37.5172V50.7585Z" fill="white"/>
    <path d="M39.7242 50.7585H37.5173V52.9654H39.7242V50.7585Z" fill="white"/>
    <path d="M44.1378 50.7585H41.9309V52.9654H44.1378V50.7585Z" fill="white"/>
    <path d="M46.3448 50.7585H44.1379V52.9654H46.3448V50.7585Z" fill="white"/>
    <path d="M55.1722 50.7585H52.9653V52.9654H55.1722V50.7585Z" fill="white"/>
    <path d="M61.7931 50.7585H59.5862V52.9654H61.7931V50.7585Z" fill="white"/>
    <path d="M64.0001 50.7585H61.7932V52.9654H64.0001V50.7585Z" fill="white"/>
    <path d="M19.8622 52.9653H17.6553V55.1722H19.8622V52.9653Z" fill="white"/>
    <path d="M26.4825 52.9653H24.2756V55.1722H26.4825V52.9653Z" fill="white"/>
    <path d="M28.6896 52.9653H26.4827V55.1722H28.6896V52.9653Z" fill="white"/>
    <path d="M30.8966 52.9653H28.6897V55.1722H30.8966V52.9653Z" fill="white"/>
    <path d="M35.3104 52.9653H33.1035V55.1722H35.3104V52.9653Z" fill="white"/>
    <path d="M37.5172 52.9653H35.3103V55.1722H37.5172V52.9653Z" fill="white"/>
    <path d="M44.1378 52.9653H41.9309V55.1722H44.1378V52.9653Z" fill="white"/>
    <path d="M46.3448 52.9653H44.1379V55.1722H46.3448V52.9653Z" fill="white"/>
    <path d="M48.5516 52.9653H46.3447V55.1722H48.5516V52.9653Z" fill="white"/>
    <path d="M50.7584 52.9653H48.5515V55.1722H50.7584V52.9653Z" fill="white"/>
    <path d="M52.9654 52.9653H50.7585V55.1722H52.9654V52.9653Z" fill="white"/>
    <path d="M55.1722 52.9653H52.9653V55.1722H55.1722V52.9653Z" fill="white"/>
    <path d="M57.3793 52.9653H55.1724V55.1722H57.3793V52.9653Z" fill="white"/>
    <path d="M19.8622 55.1724H17.6553V57.3793H19.8622V55.1724Z" fill="white"/>
    <path d="M28.6896 55.1724H26.4827V57.3793H28.6896V55.1724Z" fill="white"/>
    <path d="M30.8966 55.1724H28.6897V57.3793H30.8966V55.1724Z" fill="white"/>
    <path d="M33.1034 55.1724H30.8965V57.3793H33.1034V55.1724Z" fill="white"/>
    <path d="M37.5172 55.1724H35.3103V57.3793H37.5172V55.1724Z" fill="white"/>
    <path d="M39.7242 55.1724H37.5173V57.3793H39.7242V55.1724Z" fill="white"/>
    <path d="M41.9313 55.1724H39.7244V57.3793H41.9313V55.1724Z" fill="white"/>
    <path d="M44.1378 55.1724H41.9309V57.3793H44.1378V55.1724Z" fill="white"/>
    <path d="M46.3448 55.1724H44.1379V57.3793H46.3448V55.1724Z" fill="white"/>
    <path d="M48.5516 55.1724H46.3447V57.3793H48.5516V55.1724Z" fill="white"/>
    <path d="M52.9654 55.1724H50.7585V57.3793H52.9654V55.1724Z" fill="white"/>
    <path d="M61.7931 55.1724H59.5862V57.3793H61.7931V55.1724Z" fill="white"/>
    <path d="M24.276 57.3794H22.0691V59.5863H24.276V57.3794Z" fill="white"/>
    <path d="M30.8966 57.3794H28.6897V59.5863H30.8966V57.3794Z" fill="white"/>
    <path d="M37.5172 57.3794H35.3103V59.5863H37.5172V57.3794Z" fill="white"/>
    <path d="M48.5516 57.3794H46.3447V59.5863H48.5516V57.3794Z" fill="white"/>
    <path d="M52.9654 57.3794H50.7585V59.5863H52.9654V57.3794Z" fill="white"/>
    <path d="M55.1722 57.3794H52.9653V59.5863H55.1722V57.3794Z" fill="white"/>
    <path d="M59.5863 57.3794H57.3794V59.5863H59.5863V57.3794Z" fill="white"/>
    <path d="M61.7931 57.3794H59.5862V59.5863H61.7931V57.3794Z" fill="white"/>
    <path d="M64.0001 57.3794H61.7932V59.5863H64.0001V57.3794Z" fill="white"/>
    <path d="M26.4825 59.5862H24.2756V61.7931H26.4825V59.5862Z" fill="white"/>
    <path d="M30.8966 59.5862H28.6897V61.7931H30.8966V59.5862Z" fill="white"/>
    <path d="M35.3104 59.5862H33.1035V61.7931H35.3104V59.5862Z" fill="white"/>
    <path d="M48.5516 59.5862H46.3447V61.7931H48.5516V59.5862Z" fill="white"/>
    <path d="M52.9654 59.5862H50.7585V61.7931H52.9654V59.5862Z" fill="white"/>
    <path d="M57.3793 59.5862H55.1724V61.7931H57.3793V59.5862Z" fill="white"/>
    <path d="M59.5863 59.5862H57.3794V61.7931H59.5863V59.5862Z" fill="white"/>
    <path d="M64.0001 59.5862H61.7932V61.7931H64.0001V59.5862Z" fill="white"/>
    <path d="M19.8622 61.7932H17.6553V64.0001H19.8622V61.7932Z" fill="white"/>
    <path d="M26.4825 61.7932H24.2756V64.0001H26.4825V61.7932Z" fill="white"/>
    <path d="M28.6896 61.7932H26.4827V64.0001H28.6896V61.7932Z" fill="white"/>
    <path d="M39.7242 61.7932H37.5173V64.0001H39.7242V61.7932Z" fill="white"/>
    <path d="M41.9313 61.7932H39.7244V64.0001H41.9313V61.7932Z" fill="white"/>
    <path d="M44.1378 61.7932H41.9309V64.0001H44.1378V61.7932Z" fill="white"/>
    <path d="M46.3448 61.7932H44.1379V64.0001H46.3448V61.7932Z" fill="white"/>
    <path d="M50.7584 61.7932H48.5515V64.0001H50.7584V61.7932Z" fill="white"/>
    <path d="M55.1722 61.7932H52.9653V64.0001H55.1722V61.7932Z" fill="white"/>
    <path d="M57.3793 61.7932H55.1724V64.0001H57.3793V61.7932Z" fill="white"/>
    <path d="M13.131 0H2.31724H0V2.31724V13.131V15.4483H2.31724H13.131H15.4483V13.131V2.31724V0H13.131ZM13.131 13.131H2.31724V2.31724H13.131V13.131Z" fill="white"/>
    <path d="M61.6825 0H50.8688H48.5515V2.31724V13.131V15.4483H50.8688H61.6825H63.9998V13.131V2.31724V0H61.6825ZM61.6825 13.131H50.8688V2.31724H61.6825V13.131Z" fill="white"/>
    <path d="M13.131 48.5515H2.31724H0V50.8688V61.6825V63.9998H2.31724H13.131H15.4483V61.6825V50.8688V48.5515H13.131ZM13.131 61.6825H2.31724V50.8688H13.131V61.6825Z" fill="white"/>
    <path d="M11.0345 4.41382H4.41382V11.0345H11.0345V4.41382Z" fill="white"/>
    <path d="M59.586 4.41382H52.9653V11.0345H59.586V4.41382Z" fill="white"/>
    <path d="M11.0345 52.9653H4.41382V59.586H11.0345V52.9653Z" fill="white"/>
    </svg>
