<svg width="41" height="46" viewBox="0 0 41 46" fill="none" xmlns="http://www.w3.org/2000/svg">
    <path d="M20.5044 0L8.45468 7.02696L12.8787 9.62517L20.5044 5.19641L28.1301 9.62517L32.5542 7.02696L20.5044 0ZM28.1301 13.3453L32.5542 15.9435V21.1399L24.9285 25.5687V34.4262L20.5044 37.0244L16.0804 34.4262V25.5687L8.45468 21.1399V15.9435L12.8787 13.3453L20.5044 17.7741L28.1301 13.3453ZM32.5542 24.8601V30.0565L28.1301 32.6547V27.4583L32.5542 24.8601ZM28.0719 36.3158L35.6976 31.887V23.0295L40.1216 20.4313V34.5443L28.0719 41.5712V36.3158ZM35.6976 14.113L31.2735 11.5148L35.6976 8.91656L40.1216 11.5148V16.7112L35.6976 19.3094V14.113ZM16.0804 43.4018V38.2054L20.5044 40.8036L24.9285 38.2054V43.4018L20.5044 46L16.0804 43.4018ZM12.8787 32.6547L8.45468 30.0565V24.8601L12.8787 27.4583V32.6547ZM20.5044 14.113L16.0804 11.5148L20.5044 8.91656L24.9285 11.5148L20.5044 14.113ZM9.73532 11.5148L5.31127 14.113V19.3094L0.887207 16.7112V11.5148L5.31127 8.91656L9.73532 11.5148ZM0.887207 20.3723L5.31127 22.9705V31.828L12.9369 36.2567V41.4532L0.887207 34.4262V20.3723Z" fill="white"/>
    </svg>
