<svg width="289" height="222" viewBox="0 0 289 222" fill="none" xmlns="http://www.w3.org/2000/svg">
<path d="M91.0503 149.753L132.476 126.129C133.99 125.258 133.794 123.728 132.052 122.716L108.217 108.955C106.467 107.943 103.815 107.833 102.301 108.712L60.8754 132.335C59.3612 133.206 59.5495 134.736 61.2991 135.748L85.1345 149.502C86.8842 150.514 89.536 150.64 91.0503 149.753Z" fill="#D4ECFF"/>
<path d="M57.188 124.38V27.6727L95.6323 17.6066L102.693 13.5189C104.325 12.5853 107.158 12.7343 109.041 13.7857L115.647 17.5987H136.148L130.075 110.964C130.08 111.321 129.98 111.672 129.788 111.973C129.595 112.274 129.319 112.512 128.993 112.658L90.6188 141.609C88.9947 142.551 86.1624 142.433 84.2794 141.35L58.7257 126.569C57.643 125.941 57.1252 125.133 57.188 124.38Z" fill="#396CAA"/>
<path d="M105.651 12.8914C106.842 12.9096 108.01 13.2165 109.056 13.7858L115.662 17.5988H136.163V114.549C136.168 114.907 136.069 115.258 135.876 115.559C135.684 115.86 135.407 116.098 135.081 116.244L90.6344 141.586C89.7288 142.058 88.7118 142.275 87.6922 142.213L87.2372 44.6432L105.651 12.8914Z" fill="#D4ECFF"/>
<path d="M90.2265 141.797C88.5847 142.389 86.7847 142.366 85.1581 141.735V43.4977H90.2265V141.797Z" fill="#5793CE"/>
<path d="M90.6345 44.6589L135.081 19.317C136.705 18.3833 136.501 16.7436 134.626 15.6609L109.056 0.895094C107.173 -0.187624 104.349 -0.305311 102.709 0.636183L58.2706 25.9702C56.6465 26.9117 56.8505 28.5515 58.7257 29.6342L84.2951 44.3999C86.1781 45.5062 89.0104 45.6003 90.6345 44.6589Z" fill="#D4ECFF"/>
<path d="M58.7256 27.8374L84.295 42.5954C86.178 43.6859 89.0025 43.8036 90.6344 42.8621L135.081 17.5202C135.392 17.3429 135.66 17.0991 135.865 16.8063C136.422 17.7007 136.171 18.6736 135.081 19.3169L90.6344 44.6588C89.0103 45.6003 86.178 45.4434 84.295 44.3999L58.7256 29.6341C57.2741 28.7946 56.8269 27.6178 57.4624 26.6763C57.7806 27.1622 58.2147 27.5612 58.7256 27.8374Z" fill="#FAFDFF"/>
<path d="M89.3792 34.3886L118.966 17.2612C119.75 16.8219 119.633 16.053 118.754 15.5509L106.789 8.63089C106.338 8.38186 105.835 8.24154 105.32 8.22111C104.805 8.20068 104.293 8.3007 103.823 8.5132L74.2368 25.6484C73.4522 26.0877 73.5699 26.8488 74.4486 27.3588L86.4135 34.2631C86.8633 34.5151 87.3661 34.6578 87.8813 34.6796C88.3965 34.7014 88.9096 34.6017 89.3792 34.3886Z" fill="#173D7A"/>
<path d="M105.353 18.046L107.071 17.0575C107.173 16.9947 107.158 16.8927 107.071 16.8221L105.416 15.8649C105.353 15.8325 105.283 15.8157 105.212 15.8157C105.141 15.8157 105.071 15.8325 105.008 15.8649L103.29 16.8535C103.188 16.9162 103.195 17.0182 103.29 17.0889L104.945 18.046C105.008 18.079 105.078 18.0963 105.149 18.0963C105.22 18.0963 105.29 18.079 105.353 18.046Z" fill="#D4ECFF"/>
<path d="M99.6414 21.302L101.36 20.3134C101.462 20.2507 101.446 20.1487 101.36 20.0781L99.6414 19.1209C99.5783 19.0885 99.5084 19.0717 99.4374 19.0717C99.3665 19.0717 99.2966 19.0885 99.2335 19.1209L97.5152 20.1095C97.4132 20.1722 97.4211 20.2742 97.5152 20.3448L99.1707 21.302C99.2411 21.3467 99.3227 21.3704 99.4061 21.3704C99.4894 21.3704 99.5711 21.3467 99.6414 21.302Z" fill="#D4ECFF"/>
<path d="M93.8983 24.5972L95.6165 23.6086C95.7185 23.5458 95.7028 23.436 95.6165 23.3732L93.9611 22.4161C93.8979 22.3837 93.828 22.3668 93.7571 22.3668C93.6861 22.3668 93.6162 22.3837 93.5531 22.4161L91.7956 23.3889C91.6936 23.4439 91.7015 23.5537 91.7956 23.6243L93.4511 24.5815C93.5174 24.6239 93.5939 24.6478 93.6725 24.6505C93.7512 24.6533 93.8292 24.6349 93.8983 24.5972Z" fill="#D4ECFF"/>
<path d="M88.1708 27.8925L89.8891 26.9039C89.9911 26.8411 89.9754 26.7313 89.8891 26.6607L88.2336 25.7113C88.1686 25.6806 88.0976 25.6647 88.0257 25.6647C87.9538 25.6647 87.8828 25.6806 87.8178 25.7113L86.076 26.6764C85.974 26.7391 85.9819 26.849 86.076 26.9196L87.7315 27.8768C87.7985 27.9131 87.8731 27.9334 87.9493 27.9362C88.0256 27.9389 88.1014 27.9239 88.1708 27.8925Z" fill="#D4ECFF"/>
<path d="M118.966 17.2612C118.903 17.222 118.856 17.1749 118.785 17.1357L106.789 10.2C106.339 9.94799 105.836 9.80529 105.321 9.78349C104.806 9.76168 104.293 9.86137 103.823 10.0745L74.2683 27.2332C73.57 26.7311 73.5308 26.0485 74.2683 25.6641L103.855 8.5132C104.324 8.3007 104.837 8.20068 105.351 8.22111C105.866 8.24154 106.369 8.38186 106.82 8.63089L118.785 15.543C119.633 16.0295 119.727 16.7983 118.966 17.2612Z" fill="#5793CE"/>
<path d="M79.3052 63.8182L62.4839 54.1915C61.9609 53.8173 61.5331 53.3256 61.2347 52.7561C60.9363 52.1865 60.7756 51.5549 60.7656 50.9119V44.8942C60.7656 43.6389 61.5502 43.0583 62.4839 43.5997L79.3052 53.2343C79.8249 53.6056 80.2503 54.0936 80.5473 54.6591C80.8443 55.2245 81.0047 55.8517 81.0156 56.4903V62.508C81.0156 63.7869 80.2545 64.3361 79.3052 63.8182Z" fill="#173D7A"/>
<path d="M61.6522 43.4192C61.4987 43.5881 61.3813 43.7866 61.3071 44.0024C61.2329 44.2182 61.2035 44.4469 61.2207 44.6745V50.6844C61.231 51.3264 61.391 51.9572 61.6879 52.5265C61.9848 53.0958 62.4105 53.588 62.9311 53.9639L79.7603 63.5907C80.0057 63.7518 80.3011 63.8187 80.5919 63.779C80.4089 63.9241 80.1821 64.0031 79.9486 64.0031C79.715 64.0031 79.4883 63.9241 79.3052 63.779L62.4839 54.1914C61.9609 53.8173 61.5331 53.3256 61.2347 52.756C60.9363 52.1865 60.7756 51.5548 60.7656 50.9119V44.8942C60.7656 44.039 61.1265 43.5133 61.6522 43.4192Z" fill="white"/>
<path d="M74.2447 57.2749L72.6755 56.3883C72.5626 56.3063 72.4705 56.199 72.4064 56.075C72.3424 55.9511 72.3083 55.8138 72.3068 55.6743V54.0267C72.3068 53.7521 72.4715 53.6187 72.6755 53.7443L74.2447 54.6308C74.3586 54.7124 74.4519 54.8194 74.5173 54.9434C74.5826 55.0673 74.6182 55.2047 74.6213 55.3448V56.9924C74.6213 57.2749 74.4487 57.4004 74.2447 57.2749Z" fill="#396CAA"/>
<path d="M69.0821 54.309L67.513 53.4146C67.3991 53.333 67.3057 53.226 67.2404 53.1021C67.175 52.9782 67.1394 52.8407 67.1364 52.7006V51.053C67.1364 50.7784 67.309 50.6529 67.513 50.7706L69.0821 51.665C69.1978 51.7448 69.2925 51.8514 69.3581 51.9757C69.4237 52.1001 69.4582 52.2384 69.4587 52.379V54.0266C69.4587 54.3012 69.2939 54.4267 69.0821 54.309Z" fill="white"/>
<path d="M79.3052 107.292L62.4839 97.6571C61.9606 97.285 61.5324 96.7949 61.2339 96.2265C60.9354 95.6581 60.775 95.0274 60.7656 94.3854V88.3677C60.7656 87.1045 61.5502 86.5239 62.4839 87.0731L79.3052 96.7078C79.8274 97.0802 80.2545 97.5706 80.5516 98.1391C80.8488 98.7075 81.0078 99.338 81.0156 99.9794V105.997C81.0156 107.26 80.2545 107.833 79.3052 107.292Z" fill="#173D7A"/>
<path d="M61.6522 86.8927C61.4993 87.0604 61.3822 87.2576 61.3081 87.472C61.2339 87.6865 61.2041 87.9138 61.2207 88.1402V94.15C61.2304 94.7911 61.3901 95.4209 61.6872 95.9891C61.9842 96.5573 62.4102 97.0479 62.9311 97.4217L79.7603 107.056C80.0064 107.215 80.302 107.28 80.5919 107.237C80.4155 107.391 80.1913 107.48 79.9569 107.489C79.7226 107.498 79.4924 107.425 79.3052 107.284L62.4839 97.6571C61.9606 97.285 61.5324 96.7949 61.2339 96.2265C60.9354 95.6581 60.775 95.0274 60.7656 94.3854V88.3677C60.7656 87.5125 61.1265 86.979 61.6522 86.8927Z" fill="white"/>
<path d="M74.2447 100.756L72.6755 99.8618C72.5626 99.7798 72.4705 99.6725 72.4064 99.5485C72.3424 99.4245 72.3083 99.2873 72.3068 99.1478V97.5002C72.3068 97.2256 72.4715 97.1 72.6755 97.2177L74.2447 98.1121C74.3586 98.1937 74.4519 98.3007 74.5173 98.4247C74.5826 98.5486 74.6182 98.686 74.6213 98.8261V100.474C74.6213 100.748 74.4487 100.874 74.2447 100.756Z" fill="#396CAA"/>
<path d="M69.0821 97.7747L67.513 96.8882C67.3999 96.8057 67.3072 96.6985 67.242 96.5748C67.1767 96.4511 67.1406 96.314 67.1364 96.1742V94.5266C67.1364 94.252 67.309 94.1186 67.513 94.2441L69.0821 95.1307C69.1974 95.211 69.2917 95.3177 69.3572 95.4419C69.4228 95.5661 69.4576 95.7042 69.4587 95.8447V97.4923C69.4587 97.7669 69.2939 97.8924 69.0821 97.7747Z" fill="white"/>
<path d="M79.3052 129.025L62.4839 119.398C61.9609 119.024 61.5331 118.532 61.2347 117.962C60.9363 117.393 60.7756 116.761 60.7656 116.118V110.101C60.7656 108.845 61.5502 108.265 62.4839 108.806L79.3052 118.472C79.8274 118.844 80.2545 119.335 80.5516 119.903C80.8488 120.472 81.0078 121.102 81.0156 121.744V127.761C81.0156 128.993 80.2545 129.574 79.3052 129.025Z" fill="#173D7A"/>
<path d="M61.6522 108.625C61.4987 108.794 61.3813 108.993 61.3071 109.209C61.2329 109.424 61.2035 109.653 61.2207 109.881V115.891C61.231 116.533 61.391 117.163 61.6879 117.733C61.9848 118.302 62.4105 118.794 62.9311 119.17L79.7603 128.797C80.0057 128.958 80.3011 129.025 80.5919 128.985C80.4089 129.13 80.1821 129.209 79.9486 129.209C79.715 129.209 79.4883 129.13 79.3052 128.985L62.4839 119.398C61.9609 119.023 61.5331 118.532 61.2347 117.962C60.9363 117.393 60.7756 116.761 60.7656 116.118V110.1C60.7656 109.245 61.1265 108.712 61.6522 108.625Z" fill="white"/>
<path d="M74.2447 122.489L72.6755 121.602C72.5635 121.52 72.472 121.412 72.4081 121.288C72.3441 121.165 72.3095 121.028 72.3068 120.888V119.257C72.3068 118.982 72.4715 118.849 72.6755 118.974L74.2447 119.861C74.3586 119.942 74.4519 120.049 74.5173 120.173C74.5826 120.297 74.6182 120.435 74.6213 120.575V122.222C74.6213 122.481 74.4487 122.607 74.2447 122.489Z" fill="#396CAA"/>
<path d="M69.0821 119.515L67.513 118.621C67.3991 118.539 67.3057 118.432 67.2404 118.309C67.175 118.185 67.1394 118.047 67.1364 117.907V116.259C67.1364 115.985 67.309 115.859 67.513 115.977L69.0821 116.864C69.1965 116.945 69.2901 117.052 69.3555 117.176C69.4209 117.3 69.4563 117.437 69.4587 117.578V119.257C69.4587 119.508 69.2939 119.633 69.0821 119.515Z" fill="white"/>
<path d="M79.3052 85.5589L62.4839 75.9243C61.962 75.5509 61.5348 75.0605 61.2364 74.4924C60.9381 73.9243 60.7768 73.2942 60.7656 72.6526V66.6349C60.7656 65.3717 61.5502 64.7911 62.4839 65.3403L79.3052 74.9671C79.8271 75.3417 80.2538 75.8336 80.5509 76.4032C80.8479 76.9729 81.0071 77.6043 81.0156 78.2467V84.2565C81.0156 85.5197 80.2545 86.1003 79.3052 85.5589Z" fill="#173D7A"/>
<path d="M61.6522 65.1206C61.4987 65.2895 61.3813 65.488 61.3071 65.7038C61.2329 65.9196 61.2035 66.1483 61.2207 66.3759V72.3936C61.2304 73.0347 61.3901 73.6645 61.6872 74.2327C61.9842 74.8009 62.4102 75.2915 62.9311 75.6653L79.7603 85.3C80.008 85.4551 80.3021 85.5189 80.5919 85.4804C80.4149 85.6336 80.1908 85.7218 79.9568 85.7304C79.7229 85.739 79.493 85.6674 79.3052 85.5275L62.4839 75.9242C61.962 75.5508 61.5348 75.0605 61.2364 74.4923C60.9381 73.9242 60.7768 73.2942 60.7656 72.6526V66.6348C60.7656 65.7797 61.1265 65.2461 61.6522 65.1206Z" fill="white"/>
<path d="M74.2447 79.0233L72.6755 78.1288C72.5626 78.0469 72.4705 77.9396 72.4064 77.8156C72.3424 77.6916 72.3083 77.5544 72.3068 77.4149V75.7673C72.3068 75.4927 72.4715 75.3671 72.6755 75.4848L74.2447 76.3792C74.359 76.4604 74.4527 76.5673 74.5181 76.6913C74.5835 76.8153 74.6189 76.953 74.6213 77.0932V78.7408C74.6213 79.0154 74.4487 79.141 74.2447 79.0233Z" fill="#396CAA"/>
<path d="M69.0821 76.0419L67.513 75.1475C67.3991 75.0659 67.3057 74.9589 67.2404 74.835C67.175 74.7111 67.1394 74.5736 67.1364 74.4336V72.7859C67.1364 72.5113 67.309 72.3858 67.513 72.5035L69.0821 73.3979C69.1974 73.4782 69.2917 73.5849 69.3572 73.7091C69.4228 73.8333 69.4576 73.9714 69.4587 74.1119V75.7595C69.4587 76.0341 69.2939 76.1596 69.0821 76.0419Z" fill="white"/>
<path d="M93.8748 57.6592L132.688 35.2517C133.166 34.9079 133.556 34.4571 133.829 33.9353C134.101 33.4136 134.248 32.8353 134.257 32.2468V24.8482C134.257 23.6949 133.551 23.1614 132.688 23.6635L93.8748 46.071C93.3952 46.4131 93.0032 46.8635 92.7305 47.3856C92.4578 47.9078 92.3123 48.4869 92.3057 49.076V56.4902C92.3057 57.6279 93.0039 58.1614 93.8748 57.6592Z" fill="#5793CE"/>
<path opacity="0.4" d="M94.9889 55.0703L131.574 33.9495C131.82 33.7689 132.019 33.5325 132.156 33.2596C132.292 32.9868 132.361 32.6854 132.358 32.3803V26.8569C132.358 26.2684 132.005 26.0017 131.574 26.2528L94.9889 47.3736C94.7488 47.5506 94.553 47.7809 94.4169 48.0464C94.2807 48.3118 94.208 48.6052 94.2044 48.9035V54.4662C94.1887 55.0546 94.5496 55.3214 94.9889 55.0703Z" fill="#D4ECFF"/>
<path d="M123.963 35.5342L129.455 32.3959C129.692 32.2283 129.886 32.0076 130.023 31.7515C130.159 31.4953 130.233 31.2109 130.24 30.9209C130.24 30.3481 129.887 30.0892 129.455 30.3324L123.963 33.4708C123.725 33.6383 123.529 33.86 123.393 34.1178C123.256 34.3756 123.183 34.662 123.179 34.9536C123.179 35.5185 123.516 35.7853 123.963 35.5342Z" fill="#D4ECFF"/>
<path d="M119.295 37.1896C119.295 37.7623 119.695 37.9742 120.19 37.7074C120.452 37.5352 120.67 37.3032 120.826 37.0304C120.981 36.7577 121.07 36.4519 121.084 36.1382C121.084 35.5655 120.684 35.3537 120.19 35.6204C119.927 35.7926 119.709 36.0246 119.554 36.2974C119.398 36.5702 119.309 36.8759 119.295 37.1896Z" fill="#173D7A"/>
<path d="M116.118 39.0098C116.118 39.5826 116.518 39.7944 117.012 39.5277C117.275 39.3559 117.493 39.1241 117.649 38.8512C117.804 38.5783 117.893 38.2723 117.906 37.9585C117.906 37.3936 117.506 37.1739 117.012 37.4485C116.749 37.6185 116.531 37.8489 116.375 38.1206C116.22 38.3922 116.131 38.6971 116.118 39.0098Z" fill="#173D7A"/>
<path d="M112.979 40.7987C112.979 41.3715 113.379 41.5833 113.874 41.3165C114.137 41.1448 114.355 40.9129 114.511 40.6401C114.666 40.3672 114.754 40.0612 114.768 39.7474C114.768 39.1746 114.368 38.9628 113.874 39.2296C113.611 39.4013 113.392 39.6332 113.237 39.906C113.081 40.1789 112.993 40.4849 112.979 40.7987Z" fill="#D4ECFF"/>
<path d="M109.841 42.6582C109.841 43.2231 110.241 43.4428 110.735 43.176C110.998 43.0039 111.216 42.7719 111.371 42.4991C111.527 42.2263 111.615 41.9205 111.63 41.6069C111.63 41.0341 111.23 40.8223 110.735 41.0891C110.473 41.2612 110.255 41.4932 110.099 41.766C109.944 42.0388 109.855 42.3446 109.841 42.6582Z" fill="#173D7A"/>
<path d="M96.5031 51.9712L98.3468 50.9041C98.4984 50.7962 98.6222 50.6539 98.7081 50.4889C98.7941 50.3239 98.8396 50.1408 98.8411 49.9548V48.009C98.8411 47.6481 98.6214 47.4755 98.3468 47.6325L96.5031 48.6995C96.3515 48.8074 96.2277 48.9497 96.1418 49.1147C96.0558 49.2797 96.0103 49.4628 96.0088 49.6488V51.5946C96.0323 51.9555 96.252 52.1281 96.5031 51.9712Z" fill="#173D7A"/>
<path d="M93.8748 70.7147L132.688 48.3072C133.165 47.9625 133.555 47.5115 133.827 46.9899C134.1 46.4684 134.247 45.8905 134.257 45.3022V37.8958C134.257 36.7425 133.551 36.209 132.688 36.7111L93.8748 59.1186C93.3957 59.4611 93.004 59.9116 92.7313 60.4337C92.4587 60.9557 92.3129 61.5347 92.3057 62.1236V69.5221C92.3057 70.6833 93.0039 71.2168 93.8748 70.7147Z" fill="#5793CE"/>
<path opacity="0.4" d="M94.9889 68.1178L131.574 46.997C131.815 46.8224 132.011 46.5938 132.147 46.3294C132.284 46.065 132.356 45.7723 132.358 45.4749V39.9122C132.358 39.3238 132.005 39.0492 131.574 39.3081L94.9889 60.4132C94.7485 60.5882 94.5524 60.8169 94.4161 61.0812C94.2799 61.3455 94.2074 61.638 94.2044 61.9353V67.498C94.1887 68.1021 94.5496 68.3689 94.9889 68.1178Z" fill="#D4ECFF"/>
<path d="M123.963 48.5817L129.455 45.4434C129.692 45.2741 129.887 45.052 130.023 44.7946C130.159 44.5372 130.233 44.2517 130.24 43.9606C130.24 43.3878 129.887 43.1289 129.455 43.3721L123.963 46.5104C123.725 46.6784 123.53 46.9002 123.393 47.1579C123.257 47.4156 123.184 47.7018 123.179 47.9933C123.179 48.5739 123.516 48.8328 123.963 48.5817Z" fill="#D4ECFF"/>
<path d="M119.295 50.2137C119.295 50.7864 119.695 50.9983 120.19 50.7315C120.453 50.5598 120.671 50.3279 120.826 50.055C120.982 49.7822 121.07 49.4761 121.084 49.1624C121.084 48.5975 120.684 48.3778 120.19 48.6524C119.927 48.8224 119.708 49.0528 119.553 49.3244C119.397 49.596 119.309 49.901 119.295 50.2137Z" fill="white"/>
<path d="M116.118 52.0574C116.118 52.6301 116.518 52.842 117.012 52.5752C117.275 52.4035 117.493 52.1716 117.649 51.8987C117.804 51.6258 117.893 51.3198 117.906 51.006C117.906 50.4333 117.506 50.2215 117.012 50.4882C116.749 50.6599 116.531 50.8918 116.375 51.1647C116.22 51.4376 116.131 51.7436 116.118 52.0574Z" fill="#173D7A"/>
<path d="M112.979 53.8855C112.979 54.4504 113.379 54.6701 113.874 54.4033C114.136 54.2312 114.354 53.9992 114.51 53.7264C114.665 53.4536 114.754 53.1478 114.768 52.8342C114.768 52.2614 114.368 52.0496 113.874 52.3164C113.611 52.4885 113.393 52.7205 113.238 52.9933C113.082 53.2661 112.994 53.5719 112.979 53.8855Z" fill="#D4ECFF"/>
<path d="M109.841 55.7057C109.841 56.2784 110.241 56.4902 110.735 56.2235C110.998 56.0513 111.216 55.8193 111.371 55.5465C111.527 55.2737 111.615 54.968 111.63 54.6543C111.63 54.0894 111.23 53.8697 110.735 54.1365C110.473 54.3087 110.255 54.5407 110.099 54.8135C109.944 55.0862 109.855 55.392 109.841 55.7057Z" fill="#173D7A"/>
<path d="M96.5031 65.0187L98.3468 63.9595C98.497 63.8503 98.6199 63.7077 98.7056 63.543C98.7914 63.3783 98.8378 63.1959 98.8411 63.0102V61.0644C98.8411 60.6957 98.6214 60.5231 98.3468 60.6878L96.5031 61.747C96.3515 61.8549 96.2277 61.9972 96.1418 62.1622C96.0558 62.3273 96.0103 62.5103 96.0088 62.6963V64.6421C96.0323 65.0109 96.252 65.1756 96.5031 65.0187Z" fill="#173D7A"/>
<path d="M93.8748 83.7623L132.688 61.3548C133.166 61.011 133.556 60.5602 133.829 60.0384C134.101 59.5166 134.248 58.9384 134.257 58.3498V50.9513C134.257 49.7901 133.551 49.2566 132.688 49.7587L93.8748 72.1819C93.3966 72.5253 93.0055 72.976 92.733 73.4979C92.4605 74.0197 92.3141 74.5982 92.3057 75.1869V82.5854C92.3057 83.7309 93.0039 84.2644 93.8748 83.7623Z" fill="#5793CE"/>
<path opacity="0.4" d="M94.9889 81.1654L131.574 60.0446C131.815 59.87 132.011 59.6414 132.147 59.377C132.284 59.1126 132.356 58.8199 132.358 58.5225V52.9598C132.358 52.3714 132.005 52.0968 131.574 52.3557L94.9889 73.4765C94.7485 73.6515 94.5524 73.8802 94.4161 74.1445C94.2799 74.4088 94.2074 74.7013 94.2044 74.9986V80.5613C94.1887 81.1497 94.5496 81.4243 94.9889 81.1654Z" fill="#D4ECFF"/>
<path d="M123.963 61.6371L129.455 58.4988C129.693 58.33 129.887 58.108 130.024 57.8505C130.16 57.593 130.234 57.3072 130.24 57.016C130.24 56.4511 129.887 56.1843 129.455 56.4354L123.963 59.5737C123.725 59.7417 123.53 59.9635 123.393 60.2212C123.257 60.4789 123.184 60.7651 123.179 61.0566C123.179 61.6215 123.516 61.8804 123.963 61.6371Z" fill="#D4ECFF"/>
<path d="M119.295 63.2847C119.295 63.8574 119.695 64.0693 120.19 63.8025C120.453 63.6308 120.671 63.3989 120.826 63.126C120.982 62.8531 121.07 62.5471 121.084 62.2333C121.084 61.6606 120.684 61.4488 120.19 61.7155C119.927 61.8872 119.708 62.1191 119.553 62.392C119.397 62.6649 119.309 62.9709 119.295 63.2847Z" fill="white"/>
<path d="M116.118 65.1207C116.118 65.6856 116.518 65.9053 117.012 65.6386C117.275 65.4664 117.493 65.2344 117.648 64.9616C117.803 64.6888 117.892 64.3831 117.906 64.0694C117.906 63.4967 117.506 63.2848 117.012 63.5516C116.749 63.7238 116.531 63.9558 116.376 64.2285C116.22 64.5013 116.132 64.8071 116.118 65.1207Z" fill="#173D7A"/>
<path d="M112.979 66.9329C112.979 67.5057 113.379 67.7175 113.874 67.4508C114.136 67.2786 114.354 67.0466 114.51 66.7738C114.665 66.501 114.754 66.1953 114.768 65.8816C114.768 65.3167 114.368 65.097 113.874 65.3638C113.611 65.536 113.393 65.768 113.238 66.0407C113.082 66.3135 112.994 66.6193 112.979 66.9329Z" fill="#D4ECFF"/>
<path d="M109.841 68.7532C109.841 69.3259 110.241 69.5378 110.735 69.271C110.998 69.0993 111.217 68.8674 111.372 68.5945C111.528 68.3216 111.616 68.0156 111.63 67.7018C111.63 67.1291 111.23 66.9173 110.735 67.184C110.472 67.3557 110.254 67.5876 110.099 67.8605C109.943 68.1334 109.855 68.4394 109.841 68.7532Z" fill="#173D7A"/>
<path d="M96.5031 78.0661L98.3468 77.007C98.4984 76.8991 98.6222 76.7568 98.7081 76.5917C98.7941 76.4267 98.8396 76.2437 98.8411 76.0576V74.1119C98.8411 73.7431 98.6214 73.5784 98.3468 73.7353L96.5031 74.7944C96.3529 74.9037 96.23 75.0462 96.1443 75.211C96.0585 75.3757 96.0121 75.5581 96.0088 75.7438V77.6738C96.0323 78.0583 96.252 78.2309 96.5031 78.0661Z" fill="#173D7A"/>
<path d="M93.8748 96.8096L132.688 74.4021C133.166 74.0583 133.556 73.6075 133.829 73.0857C134.101 72.564 134.248 71.9857 134.257 71.3971V63.9986C134.257 62.8374 133.551 62.3117 132.688 62.806L93.8748 85.2136C93.3966 85.5569 93.0055 86.0076 92.733 86.5295C92.4605 87.0513 92.3141 87.6298 92.3057 88.2185V95.6249C92.3057 96.7782 93.0039 97.2882 93.8748 96.8096Z" fill="#5793CE"/>
<path opacity="0.4" d="M94.9889 94.2127L131.574 73.0997C131.82 72.9192 132.019 72.6827 132.156 72.4099C132.292 72.137 132.361 71.8356 132.358 71.5306V66.0071C132.358 65.4187 132.005 65.152 131.574 65.403L94.9889 86.5239C94.7499 86.7001 94.5547 86.9291 94.4186 87.1931C94.2825 87.4571 94.2092 87.749 94.2044 88.0459V93.6164C94.1887 94.197 94.5496 94.4716 94.9889 94.2127Z" fill="#D4ECFF"/>
<path d="M123.963 74.6846L129.455 71.5463C129.692 71.3787 129.886 71.158 130.023 70.9019C130.159 70.6458 130.233 70.3613 130.24 70.0713C130.24 69.4986 129.887 69.2318 129.455 69.4829L123.963 72.6212C123.725 72.7875 123.53 73.0079 123.394 73.2643C123.257 73.5207 123.184 73.8058 123.179 74.0962C123.179 74.6689 123.516 74.9357 123.963 74.6846Z" fill="#D4ECFF"/>
<path d="M119.295 76.3401C119.295 76.905 119.695 77.1247 120.19 76.8579C120.452 76.6857 120.67 76.4537 120.826 76.181C120.981 75.9082 121.07 75.6024 121.084 75.2888C121.084 74.716 120.684 74.5042 120.19 74.7709C119.927 74.9431 119.709 75.1751 119.554 75.4479C119.398 75.7207 119.309 76.0264 119.295 76.3401Z" fill="#173D7A"/>
<path d="M116.118 78.1602C116.118 78.733 116.518 78.9448 117.012 78.6781C117.275 78.5059 117.493 78.2739 117.648 78.0011C117.803 77.7283 117.892 77.4226 117.906 77.1089C117.906 76.544 117.506 76.3243 117.012 76.5911C116.749 76.7633 116.531 76.9953 116.376 77.268C116.22 77.5408 116.132 77.8466 116.118 78.1602Z" fill="#173D7A"/>
<path d="M112.979 79.9806C112.979 80.5533 113.379 80.7652 113.874 80.4984C114.137 80.3267 114.355 80.0948 114.511 79.8219C114.666 79.5491 114.754 79.2431 114.768 78.9293C114.768 78.3565 114.368 78.1447 113.874 78.4114C113.611 78.5831 113.392 78.815 113.237 79.0879C113.081 79.3608 112.993 79.6668 112.979 79.9806Z" fill="#D4ECFF"/>
<path d="M109.841 81.8088C109.841 82.3736 110.241 82.5933 110.735 82.3187C110.999 82.148 111.218 81.9163 111.374 81.6432C111.53 81.3702 111.617 81.0637 111.63 80.7496C111.63 80.1768 111.23 79.965 110.735 80.2318C110.471 80.4042 110.252 80.6374 110.097 80.9117C109.941 81.186 109.853 81.4936 109.841 81.8088Z" fill="#173D7A"/>
<path d="M96.5031 91.1216L98.3468 90.0545C98.4984 89.9466 98.6222 89.8043 98.7081 89.6393C98.7941 89.4743 98.8396 89.2912 98.8411 89.1052V87.1594C98.8411 86.7985 98.6214 86.6259 98.3468 86.7828L96.5031 87.8734C96.3515 87.9813 96.2277 88.1236 96.1418 88.2886C96.0558 88.4537 96.0103 88.6367 96.0088 88.8227V90.7685C96.0323 91.1059 96.252 91.2785 96.5031 91.1216Z" fill="#D4ECFF"/>
<path d="M93.8748 109.842L132.688 87.434C133.165 87.0893 133.555 86.6384 133.827 86.1168C134.1 85.5952 134.247 85.0174 134.257 84.4291V77.0462C134.257 75.8929 133.551 75.3594 132.688 75.8615L93.8748 98.269C93.3957 98.6115 93.004 99.062 92.7313 99.5841C92.4587 100.106 92.3129 100.685 92.3057 101.274V108.673C92.3057 109.842 93.0039 110.359 93.8748 109.842Z" fill="#5793CE"/>
<path opacity="0.4" d="M94.9889 107.268L131.574 86.1474C131.813 85.9715 132.009 85.7426 132.145 85.4785C132.281 85.2144 132.354 84.9224 132.358 84.6253V79.0548C132.358 78.4742 132.005 78.1996 131.574 78.4585L94.9889 99.5715C94.7435 99.7525 94.5444 99.989 94.408 100.262C94.2717 100.535 94.2019 100.836 94.2044 101.141V106.703C94.1887 107.253 94.5496 107.488 94.9889 107.268Z" fill="#D4ECFF"/>
<path d="M123.963 87.7321L129.455 84.5938C129.692 84.4245 129.887 84.2024 130.023 83.945C130.159 83.6876 130.233 83.4021 130.24 83.1109C130.24 82.5382 129.887 82.2793 129.455 82.5225L123.963 85.6608C123.725 85.8283 123.529 86.0501 123.393 86.3078C123.256 86.5656 123.183 86.8521 123.179 87.1437C123.179 87.7164 123.516 87.9832 123.963 87.7321Z" fill="#D4ECFF"/>
<path d="M119.295 89.3877C119.295 89.9604 119.695 90.1722 120.19 89.9055C120.452 89.7333 120.67 89.5013 120.826 89.2285C120.981 88.9557 121.07 88.65 121.084 88.3363C121.084 87.7714 120.684 87.5517 120.19 87.8185C119.927 87.9907 119.709 88.2227 119.554 88.4955C119.398 88.7682 119.309 89.074 119.295 89.3877Z" fill="#173D7A"/>
<path d="M116.118 91.2079C116.118 91.7806 116.518 91.9925 117.012 91.7257C117.275 91.554 117.493 91.3221 117.649 91.0492C117.804 90.7764 117.893 90.4704 117.906 90.1566C117.906 89.5838 117.506 89.372 117.012 89.6387C116.749 89.8104 116.531 90.0423 116.375 90.3152C116.22 90.5881 116.131 90.8941 116.118 91.2079Z" fill="white"/>
<path d="M112.979 93.0358C112.979 93.6007 113.379 93.8204 113.874 93.5458C114.138 93.375 114.357 93.1434 114.512 92.8703C114.668 92.5972 114.756 92.2907 114.768 91.9766C114.768 91.4039 114.368 91.192 113.874 91.4588C113.61 91.6313 113.391 91.8644 113.235 92.1387C113.079 92.4131 112.992 92.7207 112.979 93.0358Z" fill="#D4ECFF"/>
<path d="M109.841 94.8561C109.841 95.4288 110.241 95.6407 110.735 95.3739C110.998 95.2017 111.216 94.9697 111.371 94.697C111.527 94.4242 111.615 94.1184 111.63 93.8047C111.63 93.232 111.23 93.0202 110.735 93.2869C110.473 93.4591 110.255 93.6911 110.099 93.9639C109.944 94.2367 109.855 94.5424 109.841 94.8561Z" fill="white"/>
<path d="M96.5031 104.169L98.3468 103.11C98.4976 102.999 98.6208 102.856 98.7066 102.689C98.7923 102.523 98.8384 102.34 98.8411 102.153V100.207C98.8411 99.8461 98.6214 99.6735 98.3468 99.8382L96.5031 100.897C96.3515 101.005 96.2277 101.148 96.1418 101.313C96.0558 101.478 96.0103 101.661 96.0088 101.847V103.792C96.0323 104.161 96.252 104.35 96.5031 104.169Z" fill="#D4ECFF"/>
<path d="M93.8748 122.913L132.688 100.505C133.165 100.16 133.555 99.7094 133.827 99.1878C134.1 98.6662 134.247 98.0884 134.257 97.5001V90.1015C134.257 88.9403 133.551 88.4068 132.688 88.909L93.8748 111.317C93.3957 111.659 93.004 112.11 92.7313 112.632C92.4587 113.154 92.3129 113.733 92.3057 114.321V121.72C92.3057 122.881 93.0039 123.415 93.8748 122.913Z" fill="#5793CE"/>
<path opacity="0.4" d="M94.9889 120.316L131.574 99.195C131.815 99.0204 132.011 98.7918 132.147 98.5274C132.284 98.263 132.356 97.9703 132.358 97.6729V92.1102C132.358 91.5218 132.005 91.2472 131.574 91.5061L94.9889 112.627C94.7485 112.802 94.5524 113.031 94.4161 113.295C94.2799 113.559 94.2074 113.852 94.2044 114.149V119.712C94.1887 120.3 94.5496 120.575 94.9889 120.316Z" fill="#D4ECFF"/>
<path d="M123.963 100.787L129.455 97.6492C129.692 97.4799 129.887 97.2578 130.023 97.0004C130.159 96.743 130.233 96.4574 130.24 96.1663C130.24 95.5936 129.887 95.3347 129.455 95.5857L123.963 98.724C123.725 98.892 123.53 99.1138 123.393 99.3715C123.257 99.6292 123.184 99.9154 123.179 100.207C123.179 100.772 123.516 101.031 123.963 100.787Z" fill="#D4ECFF"/>
<path d="M119.295 102.435C119.295 103.008 119.695 103.22 120.19 102.953C120.453 102.781 120.671 102.549 120.826 102.277C120.982 102.004 121.07 101.698 121.084 101.384C121.084 100.811 120.684 100.599 120.19 100.866C119.927 101.038 119.708 101.27 119.553 101.543C119.397 101.815 119.309 102.121 119.295 102.435Z" fill="#173D7A"/>
<path d="M116.118 104.263C116.118 104.828 116.518 105.048 117.012 104.773C117.276 104.603 117.495 104.371 117.651 104.098C117.806 103.825 117.894 103.518 117.906 103.204C117.906 102.631 117.506 102.42 117.012 102.686C116.748 102.859 116.529 103.092 116.373 103.366C116.218 103.641 116.13 103.948 116.118 104.263Z" fill="#173D7A"/>
<path d="M112.979 106.084C112.979 106.656 113.379 106.868 113.874 106.601C114.136 106.429 114.354 106.197 114.51 105.924C114.665 105.652 114.754 105.346 114.768 105.032C114.768 104.459 114.368 104.248 113.874 104.514C113.611 104.687 113.393 104.919 113.238 105.191C113.082 105.464 112.994 105.77 112.979 106.084Z" fill="#D4ECFF"/>
<path d="M109.841 107.904C109.841 108.476 110.241 108.688 110.735 108.421C110.998 108.25 111.217 108.018 111.372 107.745C111.528 107.472 111.616 107.166 111.63 106.852C111.63 106.287 111.23 106.068 110.735 106.342C110.473 106.512 110.254 106.743 110.099 107.014C109.943 107.286 109.855 107.591 109.841 107.904Z" fill="#173D7A"/>
<path d="M96.5031 117.217L98.3468 116.157C98.4975 116.049 98.6206 115.906 98.7065 115.741C98.7923 115.576 98.8384 115.394 98.8411 115.208V113.262C98.8411 112.894 98.6214 112.729 98.3468 112.886L96.5031 113.945C96.3524 114.054 96.2293 114.196 96.1434 114.361C96.0576 114.526 96.0115 114.708 96.0088 114.894V116.84C96.0323 117.209 96.252 117.373 96.5031 117.217Z" fill="#173D7A"/>
<path d="M93.8748 135.96L132.688 113.553C133.166 113.209 133.556 112.758 133.829 112.236C134.101 111.715 134.248 111.136 134.257 110.548V103.149C134.257 101.988 133.551 101.454 132.688 101.957L93.8748 124.364C93.3966 124.707 93.0055 125.158 92.733 125.68C92.4605 126.202 92.3141 126.78 92.3057 127.369V134.775C92.3057 135.929 93.0039 136.462 93.8748 135.96Z" fill="#5793CE"/>
<path opacity="0.4" d="M94.9889 133.379L131.574 112.258C131.815 112.084 132.011 111.855 132.147 111.591C132.284 111.326 132.356 111.034 132.358 110.736V105.134C132.358 104.546 132.005 104.279 131.574 104.53L94.9889 125.651C94.7485 125.826 94.5524 126.055 94.4161 126.319C94.2799 126.583 94.2074 126.876 94.2044 127.173V132.736C94.1887 133.379 94.5496 133.622 94.9889 133.379Z" fill="#D4ECFF"/>
<path d="M123.963 113.835L129.455 110.697C129.693 110.528 129.887 110.306 130.024 110.048C130.16 109.791 130.234 109.505 130.24 109.214C130.24 108.649 129.887 108.382 129.455 108.633L123.963 111.772C123.725 111.938 123.53 112.158 123.394 112.415C123.257 112.671 123.184 112.956 123.179 113.247C123.179 113.819 123.516 114.078 123.963 113.835Z" fill="#D4ECFF"/>
<path d="M118.299 116.197C118.299 117.272 119.083 117.711 119.986 117.17C120.477 116.849 120.887 116.417 121.181 115.908C121.476 115.4 121.647 114.83 121.68 114.243C121.68 113.168 120.896 112.729 119.986 113.27C119.493 113.59 119.083 114.022 118.79 114.53C118.497 115.039 118.328 115.61 118.299 116.197Z" fill="white"/>
<path d="M111.763 120.041C111.763 120.614 112.163 120.826 112.658 120.559C112.921 120.387 113.139 120.155 113.294 119.882C113.45 119.609 113.538 119.303 113.552 118.99C113.552 118.417 113.152 118.205 112.658 118.472C112.395 118.644 112.176 118.875 112.021 119.148C111.865 119.421 111.777 119.727 111.763 120.041Z" fill="#173D7A"/>
<path d="M108.601 121.846C108.601 122.411 109.001 122.63 109.496 122.356C109.76 122.185 109.979 121.953 110.134 121.68C110.29 121.407 110.378 121.101 110.39 120.787C110.39 120.214 109.99 120.002 109.496 120.269C109.232 120.441 109.013 120.674 108.857 120.949C108.702 121.223 108.614 121.531 108.601 121.846Z" fill="#D4ECFF"/>
<path d="M105.447 123.666C105.447 124.239 105.847 124.45 106.342 124.184C106.604 124.012 106.822 123.78 106.978 123.507C107.133 123.234 107.222 122.928 107.236 122.615C107.236 122.042 106.836 121.83 106.342 122.097C106.079 122.269 105.861 122.501 105.706 122.774C105.55 123.046 105.462 123.352 105.447 123.666Z" fill="#173D7A"/>
<path d="M96.5031 130.241L98.3468 129.181C98.4984 129.073 98.6222 128.931 98.7081 128.766C98.7941 128.601 98.8396 128.418 98.8411 128.232V126.318C98.8411 125.949 98.6214 125.784 98.3468 125.941L96.5031 126.992C96.3523 127.103 96.2291 127.247 96.1433 127.413C96.0576 127.579 96.0115 127.763 96.0088 127.95V129.895C96.0323 130.241 96.252 130.429 96.5031 130.241Z" fill="#D4ECFF"/>
<path d="M251.591 156.249L175.353 112.219L261.296 116.267L266.631 121.367L267.792 129.032L266.937 134.234L264.387 140.558L261.837 145.509L258.974 149.22L251.591 156.249Z" fill="#173D7A"/>
<path d="M187.514 72.072C187.389 71.9857 187.255 71.9151 187.122 71.8367C184.078 70.2047 179.943 70.5029 175.353 73.1312L71.224 133.246C71.6655 133.587 72.068 133.977 72.4244 134.407L76.3473 132.132L97.4132 177.919L108.327 192.826L115.443 195.306L122.575 192.52L157.214 172.835L225.872 133.606L251.065 118.472L257.64 116.385L263.555 116.032L187.514 72.072Z" fill="#D4ECFF"/>
<path d="M105.22 183.969C105.22 173.196 112.814 160.039 122.151 154.649V156.508C113.701 161.388 106.828 173.29 106.828 183.043C106.828 192.795 113.701 196.765 122.151 191.885L251.606 117.154C256.275 114.463 260.503 114.212 263.563 115.977L187.514 72.0642L187.122 71.8367C184.078 70.2047 179.943 70.5029 175.353 73.1312L71.224 133.246C71.6655 133.588 72.068 133.977 72.4244 134.407L76.3473 132.132L97.4132 177.919L106.13 189.822C105.492 187.938 105.184 185.957 105.22 183.969Z" fill="#D4ECFF"/>
<path d="M105.22 182.941C105.22 183.129 105.22 183.302 105.22 183.49C105.33 178.108 107.283 172.184 110.374 166.951L109.943 166.676C107.032 171.878 105.22 177.692 105.22 182.941Z" fill="white"/>
<path d="M251.591 116.118L122.135 190.849C113.889 195.612 107.142 191.94 106.828 182.682C106.828 182.799 106.828 182.917 106.828 183.035C106.828 192.787 113.701 196.757 122.151 191.877L251.606 117.146C256.275 114.455 260.503 114.204 263.563 115.969L259.891 113.843C256.96 113.759 254.07 114.551 251.591 116.118Z" fill="white"/>
<path d="M97.4368 176.892L76.3709 131.096L72.448 133.379C72.2832 133.191 72.1184 133.01 71.9458 132.837L71.2476 133.245C71.689 133.587 72.0916 133.977 72.448 134.407L76.3709 132.131L97.4368 177.919L106.153 189.821C105.96 189.269 105.801 188.706 105.675 188.135L97.4368 176.892Z" fill="white"/>
<path d="M45.9214 110.626C36.5849 116.008 29.0294 129.158 29.0294 139.938C29.0294 145.14 30.8026 148.851 33.682 150.687H33.729C33.8938 150.797 34.0743 150.899 34.2469 150.993L110.21 194.882L105.557 186.479L106.099 178.084L107.566 173.377L109.81 168.348C109.81 168.348 111.669 164.903 111.787 164.825C111.904 164.746 114.533 161.341 114.533 161.341L117.09 158.674L119.868 156.893L122.182 154.625L45.9214 110.626Z" fill="#5793CE"/>
<path d="M251.591 156.249V154.398C260.041 149.518 266.913 137.616 266.913 127.855C266.913 118.095 260.041 114.133 251.591 119.013L122.135 193.744C112.799 199.134 105.204 194.749 105.204 183.968C105.204 173.188 112.799 160.039 122.135 154.649V156.508C113.685 161.388 106.812 173.29 106.812 183.043C106.812 192.795 113.685 196.765 122.135 191.885L251.591 117.154C260.927 111.772 268.522 116.149 268.522 126.93C268.522 137.71 260.927 150.859 251.591 156.249Z" fill="#173D7A"/>
<path d="M190.966 129.958L154.719 109.497C153.826 109.102 152.854 108.922 151.879 108.973C150.905 109.023 149.956 109.302 149.109 109.787L128.396 122.034C126.749 123.007 126.584 124.466 128.027 125.274L164.283 145.744C165.174 146.137 166.145 146.315 167.118 146.265C168.091 146.215 169.039 145.937 169.885 145.454L190.598 133.199C192.222 132.226 192.418 130.774 190.966 129.958Z" fill="#5793CE"/>
<path d="M163.381 141.303L126.113 120.308C125.806 120.168 125.542 119.948 125.348 119.673C125.154 119.397 125.036 119.075 125.007 118.739L124.96 114.588L127.039 116.299L150.262 102.561C152.153 101.447 155.025 101.298 156.68 102.231L192.3 122.301L195.023 120.732L195.07 124.921C195.011 125.374 194.835 125.804 194.56 126.168C194.285 126.533 193.92 126.819 193.501 127L169.791 141.021C167.9 142.088 165.036 142.237 163.381 141.303Z" fill="#173D7A"/>
<path d="M193.885 119.013L156.617 98.018C154.962 97.0844 152.09 97.2334 150.2 98.3475L126.49 112.368C124.599 113.49 124.41 115.145 126.066 116.079L163.333 137.082C164.989 138.016 167.86 137.867 169.751 136.745L193.461 122.724C195.36 121.61 195.54 119.947 193.885 119.013Z" fill="#2081E2"/>
<path d="M163.333 137.082L126.066 116.118C125.671 115.96 125.348 115.663 125.157 115.283C124.966 114.903 124.921 114.466 125.03 114.055C125.24 114.469 125.575 114.807 125.988 115.02L163.247 136.015C164.903 136.949 167.782 136.8 169.665 135.686L193.375 121.61C194.053 121.264 194.576 120.676 194.842 119.963C195.274 120.849 194.803 121.916 193.461 122.709L169.751 136.729C167.9 137.867 164.989 138.016 163.333 137.082Z" fill="white"/>
<path d="M154.789 113.568C156.162 112.784 156.147 111.466 154.789 110.681C154.01 110.299 153.152 110.105 152.284 110.115C151.416 110.124 150.562 110.337 149.792 110.736C148.419 111.521 148.434 112.839 149.792 113.623C150.57 114.01 151.428 114.207 152.297 114.197C153.166 114.188 154.02 113.972 154.789 113.568Z" fill="white"/>
<path d="M162.408 117.86C163.781 117.075 163.765 115.757 162.408 114.973C161.628 114.591 160.77 114.397 159.902 114.406C159.034 114.416 158.181 114.629 157.41 115.028C156.037 115.812 156.053 117.13 157.41 117.915C158.188 118.302 159.047 118.498 159.915 118.489C160.784 118.479 161.638 118.264 162.408 117.86Z" fill="white"/>
<path d="M170.026 122.152C171.399 121.367 171.383 120.049 170.026 119.264C169.247 118.882 168.388 118.688 167.521 118.698C166.653 118.708 165.799 118.92 165.028 119.319C163.655 120.104 163.671 121.422 165.028 122.207C165.806 122.593 166.665 122.79 167.534 122.781C168.402 122.771 169.257 122.555 170.026 122.152Z" fill="white"/>
<path d="M141.985 156.006L111.606 138.29L109.7 139.381L140.079 157.097L141.985 156.006Z" fill="#5793CE"/>
<path d="M141.138 145.901L119.939 133.536L118.032 134.626L139.239 146.991L141.138 145.901Z" fill="#5793CE"/>
<path d="M134.116 146.615L115.772 135.913L113.866 137.004L132.209 147.697L134.116 146.615Z" fill="#5793CE"/>
<path d="M146.151 153.629L136.98 148.278L135.073 149.369L144.245 154.719L146.151 153.629Z" fill="#5793CE"/>
<path d="M212.895 114.282L182.516 96.5743L180.61 97.6571L210.989 115.373L212.895 114.282Z" fill="#5793CE"/>
<path d="M212.048 104.177L190.841 91.8119L188.934 92.9025L210.141 105.267L212.048 104.177Z" fill="#5793CE"/>
<path d="M205.026 104.891L186.683 94.1893L184.776 95.2799L203.119 105.982L205.026 104.891Z" fill="#5793CE"/>
<path d="M217.054 111.905L207.882 106.554L205.975 107.645L215.155 112.996L217.054 111.905Z" fill="#5793CE"/>
<path d="M187.514 72.0642L187.122 71.8367C184.078 70.2047 179.943 70.5029 175.353 73.1312L166.613 78.1761L178.9 85.2373C179.12 85.3975 179.383 85.489 179.655 85.5001C179.927 85.5113 180.197 85.4417 180.429 85.3L195.415 76.6069L187.514 72.0642Z" fill="#ABD6F4"/>
<path d="M206.548 58.9069L202.625 56.6316L217.163 48.2366C217.303 48.1752 217.421 48.0747 217.504 47.9472C217.587 47.8197 217.631 47.6709 217.631 47.5187C217.631 47.3665 217.587 47.2177 217.504 47.0902C217.421 46.9627 217.303 46.8622 217.163 46.8008L202.288 38.2254C201.902 38.0321 201.476 37.9314 201.044 37.9314C200.612 37.9314 200.187 38.0321 199.801 38.2254L185.262 46.6204L181.34 44.3451L195.878 35.9501C197.487 35.1377 199.265 34.7145 201.068 34.7145C202.871 34.7145 204.648 35.1377 206.258 35.9501L221.11 44.5255C223.966 46.181 223.966 48.8642 221.11 50.5197L206.548 58.9069Z" fill="#2081E2"/>
<path d="M212.911 59.9109C212.911 57.8083 211.624 55.3525 210.047 54.4189L183.709 39.2294C183.441 39.0402 183.127 38.926 182.801 38.8984C182.474 38.8708 182.145 38.9309 181.849 39.0725L150.396 57.3532L180.814 80.2707L211.836 62.2882C211.934 62.2439 212.026 62.1886 212.111 62.1234C212.403 61.8393 212.627 61.4925 212.765 61.1093C212.904 60.726 212.954 60.3162 212.911 59.9109Z" fill="#D4ECFF"/>
<path d="M180.814 80.2708L211.836 62.2883C211.934 62.2439 212.026 62.1886 212.111 62.1235C212.41 61.8431 212.641 61.4979 212.787 61.1145C212.932 60.731 212.988 60.3194 212.95 59.911C212.923 58.8499 212.654 57.809 212.166 56.8668L176.86 77.2659L180.814 80.2708Z" fill="#173D7A"/>
<path d="M178.829 80.1845L152.491 64.9794C150.921 64.0693 149.627 61.6214 149.627 59.4873C149.627 57.3768 150.914 56.4118 152.491 57.3219L178.829 72.5349C180.398 73.445 181.693 75.8929 181.693 78.0269C181.693 80.1296 180.453 81.1025 178.829 80.1845Z" fill="#5793CE"/>
<path d="M179.151 72.4094L152.804 57.2043C152.533 57.008 152.212 56.8915 151.878 56.868C151.544 56.8444 151.21 56.9147 150.914 57.0709C151.18 57.0049 151.457 56.9952 151.727 57.0425C151.997 57.0898 152.255 57.193 152.483 57.3455L178.821 72.5507C180.39 73.4686 181.685 75.9165 181.685 78.0427C181.733 78.4763 181.669 78.915 181.5 79.3172C181.331 79.7195 181.063 80.072 180.72 80.3415C181.504 80.0983 182.006 79.2274 182.006 77.8936C182.022 75.7753 180.728 73.3274 179.151 72.4094Z" fill="white"/>
<path d="M174.882 75.0612L171.744 73.2331C171.57 73.1089 171.427 72.9455 171.328 72.7561C171.228 72.5667 171.175 72.3565 171.171 72.1425C171.171 71.7189 171.43 71.5306 171.744 71.711L174.882 73.5391C175.058 73.6619 175.202 73.825 175.301 74.0148C175.401 74.2045 175.454 74.4153 175.455 74.6297C175.455 75.0455 175.204 75.2416 174.882 75.0612Z" fill="white"/>
<path d="M178.46 53.4383C178.671 53.3677 178.854 53.2328 178.983 53.0526C179.113 52.8724 179.183 52.656 179.183 52.434C179.183 52.212 179.113 51.9956 178.983 51.8154C178.854 51.6352 178.671 51.5003 178.46 51.4298C177.921 51.1549 177.324 51.0116 176.718 51.0116C176.113 51.0116 175.516 51.1549 174.977 51.4298C174.766 51.5003 174.583 51.6352 174.453 51.8154C174.324 51.9956 174.254 52.212 174.254 52.434C174.254 52.656 174.324 52.8724 174.453 53.0526C174.583 53.2328 174.766 53.3677 174.977 53.4383C175.516 53.7131 176.113 53.8564 176.718 53.8564C177.324 53.8564 177.921 53.7131 178.46 53.4383Z" fill="#5793CE"/>
<path d="M183.764 56.4277C183.974 56.3571 184.157 56.2222 184.287 56.042C184.417 55.8618 184.486 55.6454 184.486 55.4234C184.486 55.2014 184.417 54.985 184.287 54.8048C184.157 54.6246 183.974 54.4897 183.764 54.4191C183.224 54.1443 182.628 54.001 182.022 54.001C181.417 54.001 180.82 54.1443 180.28 54.4191C180.07 54.4897 179.887 54.6246 179.757 54.8048C179.628 54.985 179.558 55.2014 179.558 55.4234C179.558 55.6454 179.628 55.8618 179.757 56.042C179.887 56.2222 180.07 56.3571 180.28 56.4277C180.82 56.7025 181.417 56.8458 182.022 56.8458C182.628 56.8458 183.224 56.7025 183.764 56.4277Z" fill="white"/>
<path d="M189.083 59.4168C189.294 59.3462 189.477 59.2113 189.606 59.0311C189.736 58.8509 189.806 58.6345 189.806 58.4125C189.806 58.1905 189.736 57.9741 189.606 57.7939C189.477 57.6137 189.294 57.4788 189.083 57.4083C188.544 57.1334 187.947 56.9901 187.342 56.9901C186.736 56.9901 186.139 57.1334 185.6 57.4083C185.389 57.4788 185.206 57.6137 185.077 57.7939C184.947 57.9741 184.877 58.1905 184.877 58.4125C184.877 58.6345 184.947 58.8509 185.077 59.0311C185.206 59.2113 185.389 59.3462 185.6 59.4168C186.139 59.6917 186.736 59.8349 187.342 59.8349C187.947 59.8349 188.544 59.6917 189.083 59.4168Z" fill="white"/>
<path d="M144.551 216.905L227.159 169.179C229.16 168.018 228.908 166.041 226.594 164.668C224.287 163.334 220.788 163.185 218.787 164.338L136.171 212.072C134.171 213.225 134.422 215.25 136.736 216.583C139.051 217.917 142.55 218.058 144.551 216.905Z" fill="#EFEFEF"/>
<path d="M233.906 152.86C233.874 152.802 233.823 152.756 233.763 152.729C233.702 152.702 233.634 152.696 233.569 152.711L229.167 153.613L230.87 156.571L233.867 153.229C233.913 153.18 233.942 153.118 233.949 153.051C233.956 152.984 233.941 152.917 233.906 152.86Z" fill="#D4ECFF"/>
<path d="M232.157 155.01C232.139 154.666 232.04 154.331 231.868 154.032C231.696 153.734 231.456 153.48 231.168 153.291C231.073 153.225 230.964 153.182 230.849 153.167C230.734 153.152 230.618 153.165 230.509 153.205C225.439 153.109 220.439 154.392 216.041 156.916L215.72 157.097L221.078 166.425L222.702 165.374C226.133 163.154 229.033 160.208 231.199 156.744L231.898 155.63C231.987 155.554 232.058 155.459 232.103 155.351C232.148 155.243 232.166 155.126 232.157 155.01Z" fill="#5793CE"/>
<path d="M222.2 163.977C222.132 162.657 221.753 161.372 221.094 160.225C220.436 159.079 219.517 158.104 218.411 157.379C216.316 156.163 214.606 157.144 214.606 159.568C214.674 160.889 215.052 162.174 215.711 163.321C216.369 164.467 217.289 165.442 218.395 166.166C220.466 167.383 222.193 166.402 222.2 163.977Z" fill="#D4ECFF"/>
<path d="M188.526 186.267L221.078 166.433L215.72 157.105L182.195 175.252L188.526 186.267Z" fill="#D4ECFF"/>
<path d="M189.868 183.364C189.787 181.805 189.339 180.287 188.56 178.933C187.782 177.579 186.695 176.428 185.388 175.574C182.909 174.13 180.892 175.291 180.892 178.155C180.972 179.714 181.419 181.232 182.196 182.586C182.973 183.939 184.058 185.091 185.364 185.946C187.828 187.389 189.868 186.228 189.868 183.364Z" fill="#D4ECFF"/>
<path d="M187.993 184.431C187.913 182.873 187.467 181.354 186.689 180.001C185.912 178.647 184.827 177.496 183.521 176.641C181.041 175.197 179.025 176.358 179.017 179.222C179.098 180.781 179.546 182.3 180.325 183.653C181.103 185.007 182.19 186.158 183.497 187.013C185.945 188.456 187.993 187.295 187.993 184.431Z" fill="#D4ECFF"/>
<path d="M180.336 176.321L137.288 201.055L143.62 212.076L186.668 187.342L180.336 176.321Z" fill="#D4ECFF"/>
<path d="M144.943 209.169C144.862 207.609 144.414 206.089 143.635 204.734C142.857 203.379 141.77 202.227 140.463 201.37C137.984 199.935 135.975 201.096 135.967 203.96C136.049 205.519 136.497 207.037 137.275 208.391C138.053 209.745 139.14 210.896 140.447 211.75C142.927 213.186 144.935 212.033 144.943 209.169Z" fill="#D4ECFF"/>
<path d="M143.335 208.235C143.209 207.276 142.872 206.356 142.348 205.542C141.825 204.728 141.127 204.04 140.306 203.528C138.737 202.602 137.489 203.23 137.576 204.925C137.7 205.885 138.037 206.805 138.561 207.619C139.084 208.433 139.782 209.121 140.604 209.632C142.197 210.55 143.421 209.93 143.335 208.235Z" fill="#396CAA"/>
<path d="M190.182 183.176C190.099 181.617 189.65 180.099 188.872 178.746C188.093 177.393 187.007 176.241 185.702 175.385C185.314 175.125 184.879 174.944 184.421 174.854C183.963 174.764 183.491 174.766 183.034 174.86C183.819 174.02 185.184 173.934 186.682 174.805C187.989 175.659 189.076 176.81 189.855 178.164C190.633 179.518 191.081 181.036 191.162 182.596C191.162 184.306 190.433 185.404 189.326 185.734C189.934 185.026 190.241 184.108 190.182 183.176Z" fill="white"/>
<path d="M190.182 183.176C190.099 181.617 189.65 180.099 188.872 178.746C188.093 177.392 187.007 176.241 185.702 175.385C184.462 174.663 183.348 174.601 182.524 175.064L180.084 176.46L181.222 178.437C181.373 179.831 181.812 181.178 182.51 182.393C183.208 183.608 184.151 184.666 185.278 185.498L186.416 187.515L188.856 186.118C189.672 185.616 190.174 184.612 190.182 183.176Z" fill="#5793CE"/>
<path d="M187.742 184.581C187.659 183.02 187.21 181.502 186.432 180.147C185.653 178.792 184.568 177.64 183.262 176.782C180.782 175.346 178.766 176.507 178.758 179.371C178.841 180.93 179.29 182.448 180.068 183.801C180.847 185.155 181.932 186.306 183.238 187.162C185.717 188.598 187.734 187.444 187.742 184.581Z" fill="#D4ECFF"/>
<path d="M141.31 209.483L138.58 204.728L129.455 209.977C129.143 210.156 128.869 210.395 128.649 210.68C128.429 210.965 128.267 211.291 128.173 211.638C128.079 211.986 128.054 212.349 128.101 212.706C128.147 213.063 128.264 213.408 128.443 213.72C128.806 214.349 129.404 214.809 130.105 214.999C130.807 215.189 131.555 215.093 132.186 214.732L141.31 209.483Z" fill="#2081E2"/>
<path d="M141.883 208.235C141.848 207.561 141.654 206.905 141.318 206.32C140.981 205.735 140.511 205.238 139.945 204.87C138.878 204.25 138.007 204.752 138.007 205.984C138.043 206.657 138.236 207.312 138.571 207.897C138.906 208.481 139.374 208.979 139.937 209.35C141.012 209.969 141.875 209.483 141.883 208.235Z" fill="#2081E2"/>
<path d="M152.13 191.642L150.78 190.857C150.312 190.642 149.796 190.554 149.283 190.604C148.77 190.654 148.28 190.838 147.862 191.14L143.154 193.838C142.686 194.14 142.297 194.548 142.017 195.03C141.737 195.511 141.576 196.052 141.546 196.608V198.962C141.523 199.394 141.354 199.806 141.067 200.131L141.224 201.213L140.071 200.539C139.975 200.48 139.898 200.394 139.85 200.293C139.801 200.191 139.782 200.078 139.796 199.966V197.612C139.861 196.452 140.197 195.323 140.779 194.317C141.361 193.311 142.172 192.456 143.146 191.822L147.854 189.131C149.423 188.229 150.89 188.088 151.996 188.731L153.346 189.515C153.814 189.731 154.331 189.818 154.843 189.769C155.356 189.719 155.846 189.534 156.264 189.233L175.165 178.374C175.254 178.31 175.358 178.271 175.467 178.261C175.576 178.251 175.686 178.272 175.785 178.32L176.938 178.994L175.942 179.363C175.805 179.783 175.528 180.143 175.157 180.383L156.257 191.242C154.703 192.144 153.236 192.285 152.13 191.642Z" fill="#5793CE"/>
<path d="M151.949 191.548C151.482 191.33 150.965 191.241 150.451 191.291C149.938 191.34 149.448 191.527 149.031 191.83L144.323 194.521C143.863 194.828 143.482 195.239 143.21 195.719C142.937 196.2 142.781 196.739 142.754 197.291V199.644C142.737 199.946 142.649 200.24 142.498 200.501C142.347 200.763 142.136 200.985 141.883 201.151C141.404 201.425 141.012 201.198 141.012 200.641V198.287C141.077 197.128 141.414 196 141.996 194.996C142.578 193.991 143.389 193.138 144.362 192.505L149.07 189.806C150.639 188.911 152.106 188.77 153.212 189.406L154.57 190.19C155.036 190.408 155.552 190.497 156.064 190.447C156.576 190.398 157.065 190.211 157.481 189.908L176.381 179.049C176.86 178.775 177.252 179.002 177.252 179.551C177.236 179.854 177.148 180.149 176.995 180.411C176.842 180.673 176.629 180.895 176.373 181.058L157.473 191.916C155.904 192.819 154.436 192.96 153.33 192.324L151.949 191.548Z" fill="#5793CE"/>
<path d="M142.675 197.714V200.068C142.675 200.068 142.675 200.068 142.675 200.115C142.721 199.976 142.745 199.83 142.746 199.684V197.33C142.742 197.265 142.742 197.199 142.746 197.134C142.7 197.324 142.676 197.519 142.675 197.714Z" fill="white"/>
<path d="M133.825 220.726L142.456 215.736C143.499 215.132 143.374 214.081 142.166 213.382C141.548 213.039 140.859 212.846 140.153 212.817C139.447 212.788 138.745 212.926 138.101 213.218L129.471 218.208C128.435 218.812 128.561 219.855 129.769 220.561C130.386 220.903 131.073 221.096 131.778 221.125C132.482 221.153 133.183 221.017 133.825 220.726Z" fill="#EFEFEF"/>
<path d="M42.375 207.89L31.5792 201.661L42.375 195.423L53.1708 201.661L42.375 207.89Z" fill="#EFEFEF"/>
<path d="M53.1708 194.584L42.375 200.821V188.354L53.1708 182.117V194.584Z" fill="#173D7A"/>
<path d="M42.375 188.354L31.5792 182.117L42.375 175.887L53.1708 182.117L42.375 188.354Z" fill="#2081E2"/>
<path d="M42.375 200.821L31.5792 194.584V182.117L42.375 188.354V200.821Z" fill="#2081E2"/>
<path d="M12.0276 132.367L0 125.423L12.0276 118.48L24.0552 125.423L12.0276 132.367Z" fill="#EFEFEF"/>
<path d="M24.0552 117.546L12.0276 124.49V110.603L24.0552 103.659V117.546Z" fill="#173D7A"/>
<path d="M12.0276 110.603L0 103.659L12.0276 96.7157L24.0552 103.659L12.0276 110.603Z" fill="#D4ECFF"/>
<path d="M12.0276 124.49L0 117.546V103.659L12.0276 110.603V124.49Z" fill="#5793CE"/>
<path d="M288.992 85.1431V76.8344H270.358L263.916 73.1155C263.002 72.7017 262.004 72.5074 261.001 72.5483C259.999 72.5892 259.019 72.864 258.142 73.3509L252.132 76.8266H233.483V85.3785C233.477 85.7078 233.568 86.0316 233.743 86.3103C233.919 86.589 234.172 86.8104 234.471 86.9476L258.558 100.85C259.471 101.264 260.468 101.458 261.469 101.417C262.47 101.377 263.448 101.102 264.324 100.615L287.587 87.183C287.993 87.0141 288.341 86.7318 288.59 86.37C288.839 86.0082 288.978 85.5822 288.992 85.1431Z" fill="#396CAA"/>
<path d="M261.265 72.5349C260.17 72.5359 259.092 72.8053 258.126 73.3195L252.116 76.7952H233.467V85.3471C233.461 85.6764 233.552 86.0002 233.727 86.2789C233.903 86.5576 234.156 86.779 234.455 86.9162L258.542 100.819C259.37 101.243 260.296 101.441 261.225 101.392L261.265 72.5349Z" fill="#396CAA"/>
<path d="M235.593 76.803H233.483V85.3549C233.477 85.6842 233.568 86.008 233.743 86.2867C233.919 86.5654 234.172 86.7868 234.471 86.924L235.593 87.5674V76.803Z" fill="#5793CE"/>
<path d="M258.911 100.984C260.401 101.525 262.037 101.509 263.516 100.937V91.2314H258.911V100.984Z" fill="#5793CE"/>
<path d="M258.558 92.2906L234.471 78.38C232.996 77.5248 233.177 76.0263 234.887 75.0534L258.126 61.6214C259.004 61.1345 259.983 60.8597 260.986 60.8188C261.988 60.7779 262.986 60.9722 263.901 61.386L288.003 75.3201C289.478 76.1753 289.297 77.6739 287.587 78.6546L264.324 92.0473C263.449 92.5354 262.471 92.8115 261.47 92.8538C260.469 92.896 259.471 92.7031 258.558 92.2906Z" fill="#D4ECFF"/>
<path d="M287.587 76.9835L264.324 90.4155C263.448 90.9023 262.47 91.1771 261.469 91.218C260.468 91.2588 259.47 91.0646 258.558 90.6509L234.471 76.7481C234.18 76.5854 233.928 76.3604 233.734 76.0891C233.224 76.8737 233.459 77.7916 234.471 78.3801L258.558 92.2906C259.471 92.7032 260.468 92.8961 261.47 92.8539C262.471 92.8116 263.449 92.5354 264.324 92.0474L287.587 78.6233C288.913 77.8387 289.313 76.7874 288.74 75.9479C288.444 76.3803 288.049 76.7354 287.587 76.9835Z" fill="white"/>
<path d="M280.134 87.3399C280.114 87.6774 280.016 88.0056 279.847 88.2984C279.678 88.5912 279.443 88.8406 279.161 89.0268C278.619 89.3328 278.188 89.0817 278.188 88.4619C278.206 88.124 278.303 87.7951 278.472 87.502C278.641 87.2089 278.877 86.9598 279.161 86.775C279.694 86.469 280.134 86.7201 280.134 87.3399Z" fill="#D4ECFF"/>
<path d="M283.233 85.5198C283.214 85.8565 283.116 86.184 282.947 86.4758C282.778 86.7675 282.543 87.0153 282.26 87.1988C281.719 87.5126 281.287 87.2615 281.287 86.6417C281.305 86.3038 281.402 85.975 281.571 85.6818C281.741 85.3887 281.976 85.1396 282.26 84.9549C282.825 84.6646 283.233 84.9157 283.233 85.5198Z" fill="#D4ECFF"/>
<path d="M286.371 83.723C286.352 84.0607 286.255 84.3894 286.086 84.6824C285.917 84.9754 285.681 85.2246 285.398 85.4098C284.857 85.7237 284.425 85.4726 284.425 84.8528C284.441 84.5145 284.538 84.1849 284.707 83.8914C284.876 83.598 285.113 83.3493 285.398 83.1659C285.955 82.8521 286.371 83.1032 286.371 83.723Z" fill="#D4ECFF"/>
<path d="M259.986 83.6681L248.711 77.1561C248.021 76.7559 248.107 76.0577 248.907 75.5869L259.79 69.3103C260.199 69.0825 260.657 68.9533 261.125 68.9329C261.594 68.9125 262.06 69.0014 262.489 69.1926L273.763 75.7046C274.453 76.1047 274.367 76.803 273.567 77.2738L262.685 83.5504C262.275 83.7799 261.818 83.9101 261.349 83.9306C260.88 83.951 260.413 83.8611 259.986 83.6681Z" fill="#5793CE"/>
<path d="M261.06 78.2154L259.491 77.3131C259.389 77.2582 259.405 77.1641 259.491 77.1013L260.998 76.2304C261.056 76.2014 261.121 76.1863 261.186 76.1863C261.251 76.1863 261.316 76.2014 261.374 76.2304L262.943 77.1327C263.045 77.1876 263.03 77.2818 262.943 77.3445L261.437 78.2154C261.379 78.2444 261.314 78.2595 261.249 78.2595C261.183 78.2595 261.119 78.2444 261.06 78.2154Z" fill="#D4ECFF"/>
<path d="M248.711 77.1561L248.876 77.0384L259.758 70.7618C260.168 70.5347 260.626 70.4065 261.095 70.3875C261.563 70.3684 262.03 70.459 262.457 70.652L273.7 77.1404C274.336 76.6854 274.367 76.0656 273.7 75.6968L262.426 69.1848C261.997 68.9936 261.531 68.9047 261.062 68.9251C260.594 68.9455 260.137 69.0747 259.727 69.3025L248.845 75.5791C248.107 76.0577 248.021 76.756 248.711 77.1561Z" fill="#396CAA"/>
</svg>
