<svg width="1015" height="1015" viewBox="0 0 1015 1015" fill="none" xmlns="http://www.w3.org/2000/svg">
    <path d="M315 0H280V35H315V0Z" fill="white"/>
    <path d="M350 0H315V35H350V0Z" fill="white"/>
    <path d="M385 0H350V35H385V0Z" fill="white"/>
    <path d="M490 0H455V35H490V0Z" fill="white"/>
    <path d="M525 0H490V35H525V0Z" fill="white"/>
    <path d="M560 0H525V35H560V0Z" fill="white"/>
    <path d="M665 0H630V35H665V0Z" fill="white"/>
    <path d="M315 35H280V70H315V35Z" fill="white"/>
    <path d="M350 35H315V70H350V35Z" fill="white"/>
    <path d="M385 35H350V70H385V35Z" fill="white"/>
    <path d="M420 35H385V70H420V35Z" fill="white"/>
    <path d="M455 35H420V70H455V35Z" fill="white"/>
    <path d="M490 35H455V70H490V35Z" fill="white"/>
    <path d="M525 35H490V70H525V35Z" fill="white"/>
    <path d="M560 35H525V70H560V35Z" fill="white"/>
    <path d="M630 35H595V70H630V35Z" fill="white"/>
    <path d="M665 35H630V70H665V35Z" fill="white"/>
    <path d="M700 35H665V70H700V35Z" fill="white"/>
    <path d="M735 35H700V70H735V35Z" fill="white"/>
    <path d="M315 70H280V105H315V70Z" fill="white"/>
    <path d="M350 70H315V105H350V70Z" fill="white"/>
    <path d="M385 70H350V105H385V70Z" fill="white"/>
    <path d="M420 70H385V105H420V70Z" fill="white"/>
    <path d="M490 70H455V105H490V70Z" fill="white"/>
    <path d="M525 70H490V105H525V70Z" fill="white"/>
    <path d="M735 70H700V105H735V70Z" fill="white"/>
    <path d="M350 105H315V140H350V105Z" fill="white"/>
    <path d="M385 105H350V140H385V105Z" fill="white"/>
    <path d="M420 105H385V140H420V105Z" fill="white"/>
    <path d="M455 105H420V140H455V105Z" fill="white"/>
    <path d="M525 105H490V140H525V105Z" fill="white"/>
    <path d="M560 105H525V140H560V105Z" fill="white"/>
    <path d="M630 105H595V140H630V105Z" fill="white"/>
    <path d="M700 105H665V140H700V105Z" fill="white"/>
    <path d="M735 105H700V140H735V105Z" fill="white"/>
    <path d="M315 140H280V175H315V140Z" fill="white"/>
    <path d="M350 140H315V175H350V140Z" fill="white"/>
    <path d="M385 140H350V175H385V140Z" fill="white"/>
    <path d="M455 140H420V175H455V140Z" fill="white"/>
    <path d="M490 140H455V175H490V140Z" fill="white"/>
    <path d="M560 140H525V175H560V140Z" fill="white"/>
    <path d="M630 140H595V175H630V140Z" fill="white"/>
    <path d="M665 140H630V175H665V140Z" fill="white"/>
    <path d="M700 140H665V175H700V140Z" fill="white"/>
    <path d="M350 175H315V210H350V175Z" fill="white"/>
    <path d="M490 175H455V210H490V175Z" fill="white"/>
    <path d="M525 175H490V210H525V175Z" fill="white"/>
    <path d="M630 175H595V210H630V175Z" fill="white"/>
    <path d="M735 175H700V210H735V175Z" fill="white"/>
    <path d="M315 210H280V245H315V210Z" fill="white"/>
    <path d="M385 210H350V245H385V210Z" fill="white"/>
    <path d="M455 210H420V245H455V210Z" fill="white"/>
    <path d="M525 210H490V245H525V210Z" fill="white"/>
    <path d="M595 210H560V245H595V210Z" fill="white"/>
    <path d="M665 210H630V245H665V210Z" fill="white"/>
    <path d="M735 210H700V245H735V210Z" fill="white"/>
    <path d="M350 245H315V280H350V245Z" fill="white"/>
    <path d="M455 245H420V280H455V245Z" fill="white"/>
    <path d="M525 245H490V280H525V245Z" fill="white"/>
    <path d="M35 280H0V315H35V280Z" fill="white"/>
    <path d="M140 280H105V315H140V280Z" fill="white"/>
    <path d="M175 280H140V315H175V280Z" fill="white"/>
    <path d="M210 280H175V315H210V280Z" fill="white"/>
    <path d="M245 280H210V315H245V280Z" fill="white"/>
    <path d="M280 280H245V315H280V280Z" fill="white"/>
    <path d="M315 280H280V315H315V280Z" fill="white"/>
    <path d="M350 280H315V315H350V280Z" fill="white"/>
    <path d="M455 280H420V315H455V280Z" fill="white"/>
    <path d="M490 280H455V315H490V280Z" fill="white"/>
    <path d="M525 280H490V315H525V280Z" fill="white"/>
    <path d="M560 280H525V315H560V280Z" fill="white"/>
    <path d="M595 280H560V315H595V280Z" fill="white"/>
    <path d="M630 280H595V315H630V280Z" fill="white"/>
    <path d="M770 280H735V315H770V280Z" fill="white"/>
    <path d="M875 280H840V315H875V280Z" fill="white"/>
    <path d="M945 280H910V315H945V280Z" fill="white"/>
    <path d="M980 280H945V315H980V280Z" fill="white"/>
    <path d="M1015 280H980V315H1015V280Z" fill="white"/>
    <path d="M35 315H0V350H35V315Z" fill="white"/>
    <path d="M105 315H70V350H105V315Z" fill="white"/>
    <path d="M315 315H280V350H315V315Z" fill="white"/>
    <path d="M455 315H420V350H455V315Z" fill="white"/>
    <path d="M525 315H490V350H525V315Z" fill="white"/>
    <path d="M630 315H595V350H630V315Z" fill="white"/>
    <path d="M700 315H665V350H700V315Z" fill="white"/>
    <path d="M770 315H735V350H770V315Z" fill="white"/>
    <path d="M840 315H805V350H840V315Z" fill="white"/>
    <path d="M875 315H840V350H875V315Z" fill="white"/>
    <path d="M945 315H910V350H945V315Z" fill="white"/>
    <path d="M980 315H945V350H980V315Z" fill="white"/>
    <path d="M70 350H35V385H70V350Z" fill="white"/>
    <path d="M105 350H70V385H105V350Z" fill="white"/>
    <path d="M175 350H140V385H175V350Z" fill="white"/>
    <path d="M210 350H175V385H210V350Z" fill="white"/>
    <path d="M245 350H210V385H245V350Z" fill="white"/>
    <path d="M350 350H315V385H350V350Z" fill="white"/>
    <path d="M385 350H350V385H385V350Z" fill="white"/>
    <path d="M525 350H490V385H525V350Z" fill="white"/>
    <path d="M630 350H595V385H630V350Z" fill="white"/>
    <path d="M665 350H630V385H665V350Z" fill="white"/>
    <path d="M770 350H735V385H770V350Z" fill="white"/>
    <path d="M840 350H805V385H840V350Z" fill="white"/>
    <path d="M945 350H910V385H945V350Z" fill="white"/>
    <path d="M140 385H105V420H140V385Z" fill="white"/>
    <path d="M175 385H140V420H175V385Z" fill="white"/>
    <path d="M315 385H280V420H315V385Z" fill="white"/>
    <path d="M350 385H315V420H350V385Z" fill="white"/>
    <path d="M385 385H350V420H385V385Z" fill="white"/>
    <path d="M525 385H490V420H525V385Z" fill="white"/>
    <path d="M560 385H525V420H560V385Z" fill="white"/>
    <path d="M630 385H595V420H630V385Z" fill="white"/>
    <path d="M735 385H700V420H735V385Z" fill="white"/>
    <path d="M770 385H735V420H770V385Z" fill="white"/>
    <path d="M805 385H770V420H805V385Z" fill="white"/>
    <path d="M910 385H875V420H910V385Z" fill="white"/>
    <path d="M1015 385H980V420H1015V385Z" fill="white"/>
    <path d="M35 420H0V455H35V420Z" fill="white"/>
    <path d="M70 420H35V455H70V420Z" fill="white"/>
    <path d="M105 420H70V455H105V420Z" fill="white"/>
    <path d="M140 420H105V455H140V420Z" fill="white"/>
    <path d="M245 420H210V455H245V420Z" fill="white"/>
    <path d="M385 420H350V455H385V420Z" fill="white"/>
    <path d="M455 420H420V455H455V420Z" fill="white"/>
    <path d="M490 420H455V455H490V420Z" fill="white"/>
    <path d="M525 420H490V455H525V420Z" fill="white"/>
    <path d="M665 420H630V455H665V420Z" fill="white"/>
    <path d="M735 420H700V455H735V420Z" fill="white"/>
    <path d="M805 420H770V455H805V420Z" fill="white"/>
    <path d="M840 420H805V455H840V420Z" fill="white"/>
    <path d="M1015 420H980V455H1015V420Z" fill="white"/>
    <path d="M105 455H70V490H105V455Z" fill="white"/>
    <path d="M420 455H385V490H420V455Z" fill="white"/>
    <path d="M455 455H420V490H455V455Z" fill="white"/>
    <path d="M630 455H595V490H630V455Z" fill="white"/>
    <path d="M665 455H630V490H665V455Z" fill="white"/>
    <path d="M770 455H735V490H770V455Z" fill="white"/>
    <path d="M805 455H770V490H805V455Z" fill="white"/>
    <path d="M875 455H840V490H875V455Z" fill="white"/>
    <path d="M910 455H875V490H910V455Z" fill="white"/>
    <path d="M945 455H910V490H945V455Z" fill="white"/>
    <path d="M980 455H945V490H980V455Z" fill="white"/>
    <path d="M1015 455H980V490H1015V455Z" fill="white"/>
    <path d="M70 490H35V525H70V490Z" fill="white"/>
    <path d="M210 490H175V525H210V490Z" fill="white"/>
    <path d="M245 490H210V525H245V490Z" fill="white"/>
    <path d="M280 490H245V525H280V490Z" fill="white"/>
    <path d="M315 490H280V525H315V490Z" fill="white"/>
    <path d="M385 490H350V525H385V490Z" fill="white"/>
    <path d="M525 490H490V525H525V490Z" fill="white"/>
    <path d="M560 490H525V525H560V490Z" fill="white"/>
    <path d="M630 490H595V525H630V490Z" fill="white"/>
    <path d="M700 490H665V525H700V490Z" fill="white"/>
    <path d="M735 490H700V525H735V490Z" fill="white"/>
    <path d="M770 490H735V525H770V490Z" fill="white"/>
    <path d="M805 490H770V525H805V490Z" fill="white"/>
    <path d="M840 490H805V525H840V490Z" fill="white"/>
    <path d="M945 490H910V525H945V490Z" fill="white"/>
    <path d="M1015 490H980V525H1015V490Z" fill="white"/>
    <path d="M35 525H0V560H35V525Z" fill="white"/>
    <path d="M70 525H35V560H70V525Z" fill="white"/>
    <path d="M175 525H140V560H175V525Z" fill="white"/>
    <path d="M280 525H245V560H280V525Z" fill="white"/>
    <path d="M350 525H315V560H350V525Z" fill="white"/>
    <path d="M385 525H350V560H385V525Z" fill="white"/>
    <path d="M490 525H455V560H490V525Z" fill="white"/>
    <path d="M525 525H490V560H525V525Z" fill="white"/>
    <path d="M595 525H560V560H595V525Z" fill="white"/>
    <path d="M665 525H630V560H665V525Z" fill="white"/>
    <path d="M840 525H805V560H840V525Z" fill="white"/>
    <path d="M875 525H840V560H875V525Z" fill="white"/>
    <path d="M945 525H910V560H945V525Z" fill="white"/>
    <path d="M1015 525H980V560H1015V525Z" fill="white"/>
    <path d="M175 560H140V595H175V560Z" fill="white"/>
    <path d="M245 560H210V595H245V560Z" fill="white"/>
    <path d="M455 560H420V595H455V560Z" fill="white"/>
    <path d="M560 560H525V595H560V560Z" fill="white"/>
    <path d="M700 560H665V595H700V560Z" fill="white"/>
    <path d="M735 560H700V595H735V560Z" fill="white"/>
    <path d="M910 560H875V595H910V560Z" fill="white"/>
    <path d="M35 595H0V630H35V595Z" fill="white"/>
    <path d="M140 595H105V630H140V595Z" fill="white"/>
    <path d="M315 595H280V630H315V595Z" fill="white"/>
    <path d="M350 595H315V630H350V595Z" fill="white"/>
    <path d="M630 595H595V630H630V595Z" fill="white"/>
    <path d="M665 595H630V630H665V595Z" fill="white"/>
    <path d="M700 595H665V630H700V595Z" fill="white"/>
    <path d="M875 595H840V630H875V595Z" fill="white"/>
    <path d="M945 595H910V630H945V595Z" fill="white"/>
    <path d="M980 595H945V630H980V595Z" fill="white"/>
    <path d="M35 630H0V665H35V630Z" fill="white"/>
    <path d="M70 630H35V665H70V630Z" fill="white"/>
    <path d="M105 630H70V665H105V630Z" fill="white"/>
    <path d="M245 630H210V665H245V630Z" fill="white"/>
    <path d="M280 630H245V665H280V630Z" fill="white"/>
    <path d="M350 630H315V665H350V630Z" fill="white"/>
    <path d="M385 630H350V665H385V630Z" fill="white"/>
    <path d="M490 630H455V665H490V630Z" fill="white"/>
    <path d="M525 630H490V665H525V630Z" fill="white"/>
    <path d="M595 630H560V665H595V630Z" fill="white"/>
    <path d="M665 630H630V665H665V630Z" fill="white"/>
    <path d="M700 630H665V665H700V630Z" fill="white"/>
    <path d="M770 630H735V665H770V630Z" fill="white"/>
    <path d="M805 630H770V665H805V630Z" fill="white"/>
    <path d="M910 630H875V665H910V630Z" fill="white"/>
    <path d="M1015 630H980V665H1015V630Z" fill="white"/>
    <path d="M35 665H0V700H35V665Z" fill="white"/>
    <path d="M70 665H35V700H70V665Z" fill="white"/>
    <path d="M175 665H140V700H175V665Z" fill="white"/>
    <path d="M210 665H175V700H210V665Z" fill="white"/>
    <path d="M280 665H245V700H280V665Z" fill="white"/>
    <path d="M315 665H280V700H315V665Z" fill="white"/>
    <path d="M350 665H315V700H350V665Z" fill="white"/>
    <path d="M385 665H350V700H385V665Z" fill="white"/>
    <path d="M420 665H385V700H420V665Z" fill="white"/>
    <path d="M490 665H455V700H490V665Z" fill="white"/>
    <path d="M560 665H525V700H560V665Z" fill="white"/>
    <path d="M595 665H560V700H595V665Z" fill="white"/>
    <path d="M700 665H665V700H700V665Z" fill="white"/>
    <path d="M770 665H735V700H770V665Z" fill="white"/>
    <path d="M805 665H770V700H805V665Z" fill="white"/>
    <path d="M840 665H805V700H840V665Z" fill="white"/>
    <path d="M875 665H840V700H875V665Z" fill="white"/>
    <path d="M910 665H875V700H910V665Z" fill="white"/>
    <path d="M945 665H910V700H945V665Z" fill="white"/>
    <path d="M35 700H0V735H35V700Z" fill="white"/>
    <path d="M70 700H35V735H70V700Z" fill="white"/>
    <path d="M105 700H70V735H105V700Z" fill="white"/>
    <path d="M210 700H175V735H210V700Z" fill="white"/>
    <path d="M245 700H210V735H245V700Z" fill="white"/>
    <path d="M350 700H315V735H350V700Z" fill="white"/>
    <path d="M385 700H350V735H385V700Z" fill="white"/>
    <path d="M455 700H420V735H455V700Z" fill="white"/>
    <path d="M490 700H455V735H490V700Z" fill="white"/>
    <path d="M630 700H595V735H630V700Z" fill="white"/>
    <path d="M700 700H665V735H700V700Z" fill="white"/>
    <path d="M735 700H700V735H735V700Z" fill="white"/>
    <path d="M770 700H735V735H770V700Z" fill="white"/>
    <path d="M805 700H770V735H805V700Z" fill="white"/>
    <path d="M840 700H805V735H840V700Z" fill="white"/>
    <path d="M875 700H840V735H875V700Z" fill="white"/>
    <path d="M910 700H875V735H910V700Z" fill="white"/>
    <path d="M945 700H910V735H945V700Z" fill="white"/>
    <path d="M980 700H945V735H980V700Z" fill="white"/>
    <path d="M315 735H280V770H315V735Z" fill="white"/>
    <path d="M420 735H385V770H420V735Z" fill="white"/>
    <path d="M490 735H455V770H490V735Z" fill="white"/>
    <path d="M595 735H560V770H595V735Z" fill="white"/>
    <path d="M630 735H595V770H630V735Z" fill="white"/>
    <path d="M665 735H630V770H665V735Z" fill="white"/>
    <path d="M735 735H700V770H735V735Z" fill="white"/>
    <path d="M875 735H840V770H875V735Z" fill="white"/>
    <path d="M910 735H875V770H910V735Z" fill="white"/>
    <path d="M315 770H280V805H315V770Z" fill="white"/>
    <path d="M490 770H455V805H490V770Z" fill="white"/>
    <path d="M560 770H525V805H560V770Z" fill="white"/>
    <path d="M595 770H560V805H595V770Z" fill="white"/>
    <path d="M700 770H665V805H700V770Z" fill="white"/>
    <path d="M735 770H700V805H735V770Z" fill="white"/>
    <path d="M805 770H770V805H805V770Z" fill="white"/>
    <path d="M875 770H840V805H875V770Z" fill="white"/>
    <path d="M910 770H875V805H910V770Z" fill="white"/>
    <path d="M315 805H280V840H315V805Z" fill="white"/>
    <path d="M350 805H315V840H350V805Z" fill="white"/>
    <path d="M385 805H350V840H385V805Z" fill="white"/>
    <path d="M455 805H420V840H455V805Z" fill="white"/>
    <path d="M490 805H455V840H490V805Z" fill="white"/>
    <path d="M595 805H560V840H595V805Z" fill="white"/>
    <path d="M630 805H595V840H630V805Z" fill="white"/>
    <path d="M700 805H665V840H700V805Z" fill="white"/>
    <path d="M735 805H700V840H735V805Z" fill="white"/>
    <path d="M875 805H840V840H875V805Z" fill="white"/>
    <path d="M980 805H945V840H980V805Z" fill="white"/>
    <path d="M1015 805H980V840H1015V805Z" fill="white"/>
    <path d="M315 840H280V875H315V840Z" fill="white"/>
    <path d="M420 840H385V875H420V840Z" fill="white"/>
    <path d="M455 840H420V875H455V840Z" fill="white"/>
    <path d="M490 840H455V875H490V840Z" fill="white"/>
    <path d="M560 840H525V875H560V840Z" fill="white"/>
    <path d="M595 840H560V875H595V840Z" fill="white"/>
    <path d="M700 840H665V875H700V840Z" fill="white"/>
    <path d="M735 840H700V875H735V840Z" fill="white"/>
    <path d="M770 840H735V875H770V840Z" fill="white"/>
    <path d="M805 840H770V875H805V840Z" fill="white"/>
    <path d="M840 840H805V875H840V840Z" fill="white"/>
    <path d="M875 840H840V875H875V840Z" fill="white"/>
    <path d="M910 840H875V875H910V840Z" fill="white"/>
    <path d="M315 875H280V910H315V875Z" fill="white"/>
    <path d="M455 875H420V910H455V875Z" fill="white"/>
    <path d="M490 875H455V910H490V875Z" fill="white"/>
    <path d="M525 875H490V910H525V875Z" fill="white"/>
    <path d="M595 875H560V910H595V875Z" fill="white"/>
    <path d="M630 875H595V910H630V875Z" fill="white"/>
    <path d="M665 875H630V910H665V875Z" fill="white"/>
    <path d="M700 875H665V910H700V875Z" fill="white"/>
    <path d="M735 875H700V910H735V875Z" fill="white"/>
    <path d="M770 875H735V910H770V875Z" fill="white"/>
    <path d="M840 875H805V910H840V875Z" fill="white"/>
    <path d="M980 875H945V910H980V875Z" fill="white"/>
    <path d="M385 910H350V945H385V910Z" fill="white"/>
    <path d="M490 910H455V945H490V910Z" fill="white"/>
    <path d="M595 910H560V945H595V910Z" fill="white"/>
    <path d="M770 910H735V945H770V910Z" fill="white"/>
    <path d="M840 910H805V945H840V910Z" fill="white"/>
    <path d="M875 910H840V945H875V910Z" fill="white"/>
    <path d="M945 910H910V945H945V910Z" fill="white"/>
    <path d="M980 910H945V945H980V910Z" fill="white"/>
    <path d="M1015 910H980V945H1015V910Z" fill="white"/>
    <path d="M420 945H385V980H420V945Z" fill="white"/>
    <path d="M490 945H455V980H490V945Z" fill="white"/>
    <path d="M560 945H525V980H560V945Z" fill="white"/>
    <path d="M770 945H735V980H770V945Z" fill="white"/>
    <path d="M840 945H805V980H840V945Z" fill="white"/>
    <path d="M910 945H875V980H910V945Z" fill="white"/>
    <path d="M945 945H910V980H945V945Z" fill="white"/>
    <path d="M1015 945H980V980H1015V945Z" fill="white"/>
    <path d="M315 980H280V1015H315V980Z" fill="white"/>
    <path d="M420 980H385V1015H420V980Z" fill="white"/>
    <path d="M455 980H420V1015H455V980Z" fill="white"/>
    <path d="M630 980H595V1015H630V980Z" fill="white"/>
    <path d="M665 980H630V1015H665V980Z" fill="white"/>
    <path d="M700 980H665V1015H700V980Z" fill="white"/>
    <path d="M735 980H700V1015H735V980Z" fill="white"/>
    <path d="M805 980H770V1015H805V980Z" fill="white"/>
    <path d="M875 980H840V1015H875V980Z" fill="white"/>
    <path d="M910 980H875V1015H910V980Z" fill="white"/>
    <path d="M208.25 36.75H36.75V208.25H208.25V36.75Z" fill="white"/>
    <path d="M208.25 0H36.75H0V36.75V208.25V245H36.75H208.25H245V208.25V36.75V0H208.25ZM208.25 208.25H36.75V36.75H208.25V208.25Z" fill="white"/>
    <path d="M978.25 36.75H806.75V208.25H978.25V36.75Z" fill="white"/>
    <path d="M978.25 0H806.75H770V36.75V208.25V245H806.75H978.25H1015V208.25V36.75V0H978.25ZM978.25 208.25H806.75V36.75H978.25V208.25Z" fill="white"/>
    <path d="M208.25 806.75H36.75V978.25H208.25V806.75Z" fill="white"/>
    <path d="M208.25 770H36.75H0V806.75V978.25V1015H36.75H208.25H245V978.25V806.75V770H208.25ZM208.25 978.25H36.75V806.75H208.25V978.25Z" fill="white"/>
    <path d="M175 70H70V175H175V70Z" fill="white"/>
    <path d="M945 70H840V175H945V70Z" fill="white"/>
    <path d="M175 840H70V945H175V840Z" fill="white"/>
</svg>
