<svg width="74" height="36" viewBox="0 0 74 36" fill="none" xmlns="http://www.w3.org/2000/svg">
    <g filter="url(#filter0_i_268_808)">
        <rect x="0.194824" width="49.782" height="35.3977" rx="6.32102" fill="url(#paint0_linear_268_808)"/>
    </g>
    <path d="M0.138185 12.2515H17.0665C18.1383 8.9795 21.152 2.23734 24.6322 1.44485C25.9247 1.89513 28.9447 3.51613 30.6848 6.39791M0.138184 23.5985H17.0665C17.0665 29.218 22.1103 33.3245 24.6322 34.6753C28.869 33.3065 32.1349 26.7204 33.2383 23.5985H49.9774M49.9774 14.9532H33.2383C32.4817 13.5423 31.4225 10.2883 33.2383 8.55924" stroke="url(#paint1_linear_268_808)" stroke-width="0.541801"/>
    <path d="M59.4927 14.9598C60.0983 16.0434 60.9462 18.7163 59.4927 20.739M63.4898 12.8829C64.3982 14.5986 65.67 18.9872 63.4898 22.8159M67.0326 10.7157C68.2136 13.0334 69.8669 19.0775 67.0326 24.7122M70.8481 9C72.3621 11.7391 74.4818 19.0594 70.8481 26.4279" stroke="white" stroke-width="1.98661" stroke-linecap="round" stroke-linejoin="round"/>
    <defs>
        <filter id="filter0_i_268_808" x="0.194824" y="0" width="49.7817" height="35.3977" filterUnits="userSpaceOnUse" color-interpolation-filters="sRGB">
            <feFlood flood-opacity="0" result="BackgroundImageFix"/>
            <feBlend mode="normal" in="SourceGraphic" in2="BackgroundImageFix" result="shape"/>
            <feColorMatrix in="SourceAlpha" type="matrix" values="0 0 0 0 0 0 0 0 0 0 0 0 0 0 0 0 0 0 127 0" result="hardAlpha"/>
            <feOffset dx="-0.541801" dy="-0.541801"/>
            <feComposite in2="hardAlpha" operator="arithmetic" k2="-1" k3="1"/>
            <feColorMatrix type="matrix" values="0 0 0 0 0 0 0 0 0 0 0 0 0 0 0 0 0 0 0.25 0"/>
            <feBlend mode="normal" in2="shape" result="effect1_innerShadow_268_808"/>
        </filter>
        <linearGradient id="paint0_linear_268_808" x1="0.194824" y1="0" x2="44.5904" y2="35.6571" gradientUnits="userSpaceOnUse">
            <stop stop-color="#ABABAB"/>
            <stop offset="0.3125" stop-color="white"/>
            <stop offset="0.630208" stop-color="#BDBDBD"/>
            <stop offset="1" stop-color="#5E5E5E"/>
        </linearGradient>
        <linearGradient id="paint1_linear_268_808" x1="2.01233" y1="1.98665" x2="46.4344" y2="34.0245" gradientUnits="userSpaceOnUse">
            <stop stop-color="#7D7D7D"/>
            <stop offset="0.494792" stop-color="white"/>
            <stop offset="1" stop-color="#1C1C1C"/>
        </linearGradient>
    </defs>
</svg>
